<svg preserveAspectRatio="none" viewBox="0 0 41 33" fill="none" xmlns="http://www.w3.org/2000/svg">
<path d="M37.1682 32.9633C38.0804 32.9633 38.8709 32.6611 39.5429 32.0642L28.0448 20.5251C27.7689 20.7233 27.5015 20.9161 27.2489 21.0994C26.3885 21.7356 25.6901 22.232 25.1538 22.5878C24.6177 22.9443 23.9043 23.3078 23.0137 23.6788C22.1226 24.0503 21.2924 24.2354 20.5223 24.2354H20.4998H20.4772C19.707 24.2354 18.8768 24.0504 17.9858 23.6788C17.0947 23.3078 16.3813 22.9443 15.8457 22.5878C15.3095 22.232 14.6115 21.7357 13.7506 21.0994C13.5107 20.9229 13.2446 20.7292 12.9569 20.522L1.45664 32.0642C2.12856 32.6611 2.91954 32.9633 3.83173 32.9633H37.1682V32.9633Z" fill="#127AB3"/>
<path d="M2.49557 13.2573C1.63518 12.6817 0.872195 12.0224 0.207947 11.2798V28.8356L10.3423 18.6655C8.31487 17.245 5.70261 15.4444 2.49557 13.2573Z" fill="#127AB3"/>
<path d="M38.5273 13.2573C35.4426 15.3525 32.8208 17.1563 30.6617 18.6695L40.792 28.8361V11.2798C40.1425 12.0075 39.3877 12.6663 38.5273 13.2573Z" fill="#127AB3"/>
<path d="M37.1677 0.962158H3.83134C2.66833 0.962158 1.77419 1.35627 1.14782 2.14369C0.520924 2.93147 0.207994 3.91669 0.207994 5.09822C0.207994 6.05259 0.62327 7.08668 1.45345 8.20078C2.28363 9.31443 3.16701 10.1892 4.10315 10.8254C4.61635 11.1893 6.16398 12.269 8.74604 14.0642C10.1399 15.0335 11.352 15.8784 12.3937 16.6075C13.2816 17.2283 14.0473 17.7659 14.6795 18.2121C14.7521 18.2632 14.8662 18.3451 15.0177 18.4538C15.1809 18.5715 15.3874 18.7207 15.6422 18.9054C16.1329 19.2615 16.5405 19.5493 16.8651 19.7693C17.1893 19.9892 17.5821 20.2349 18.0429 20.5078C18.5034 20.7803 18.9377 20.9852 19.3453 21.1214C19.753 21.2576 20.1304 21.326 20.4776 21.326H20.5001H20.5227C20.8698 21.326 21.2472 21.2576 21.655 21.1214C22.0625 20.9852 22.4965 20.7807 22.9573 20.5078C23.4176 20.2349 23.8099 19.9887 24.1352 19.7693C24.4598 19.5493 24.8674 19.2616 25.3581 18.9054C25.6124 18.7207 25.819 18.5714 25.9822 18.4542C26.1337 18.345 26.2478 18.2636 26.3208 18.2121C26.8133 17.8682 27.5808 17.3328 28.6126 16.6138C30.4902 15.3046 33.2554 13.3777 36.9198 10.8254C38.0218 10.053 38.9426 9.12077 39.6826 8.03019C40.4212 6.93961 40.7916 5.79564 40.7916 4.59866C40.7916 3.59858 40.4325 2.74285 39.7159 2.03011C38.9986 1.31827 38.1491 0.962158 37.1677 0.962158Z" fill="#127AB3"/>
</svg>
