<svg class="services-svg" preserveAspectRatio="none" viewBox="0 0 512 512" fill="none" xmlns="http://www.w3.org/2000/svg">
<path d="M144.18 39.1901H107.514C103.31 39.1901 99.901 35.7831 99.901 31.5771C99.901 27.3731 103.309 23.9651 107.514 23.9651H144.18C148.384 23.9651 151.793 27.3721 151.793 31.5771C151.792 35.7821 148.384 39.1901 144.18 39.1901Z" fill="#E8E8E8"/>
<path d="M42.134 156.324C-2.34498 87.1641 0.0220247 91.7601 0.0220247 88.6081V47.3681C0.0220247 31.6721 10.252 23.9651 20.334 23.9651H40.7C44.904 23.9651 48.313 27.3721 48.313 31.5771C48.313 35.7821 44.905 39.1901 40.7 39.1901H20.546C18.044 39.3511 15.247 40.4961 15.247 47.3691V86.3731L54.939 148.09C57.213 151.625 56.19 156.336 52.654 158.61C49.12 160.885 44.409 159.861 42.134 156.324Z" fill="#E8E8E8"/>
<path d="M26.022 346.085C26.022 400.283 26.022 490.079 26.022 492.189C26.022 499.65 32.069 505.698 39.53 505.698H57.541C65.001 505.698 71.049 499.649 71.049 492.189C71.049 482.207 71.049 397.914 71.049 346.085H26.022Z" fill="#C6A875"/>
<path d="M59.78 505.497C59.784 505.496 59.788 505.496 59.792 505.495C53.405 504.421 48.536 498.879 48.536 492.189C48.536 490.079 48.536 400.283 48.536 346.085H26.022C26.022 400.283 26.022 490.079 26.022 492.189C26.022 499.649 32.068 505.698 39.53 505.698C58.371 505.697 58.036 505.789 59.78 505.497Z" fill="#B5915D"/>
<path d="M84.558 182.413V335.888C84.558 343.349 78.511 349.397 71.05 349.397H26.022C18.559 349.397 12.514 343.348 12.514 335.888V162.527C12.514 155.067 18.561 149.019 26.022 149.019H71.05C78.512 149.019 84.558 155.068 84.558 162.527V182.413Z" fill="#AA9A79"/>
<path d="M48.536 335.888V162.527C48.536 155.067 54.583 149.019 62.044 149.019H26.022C18.559 149.019 12.514 155.068 12.514 162.527V335.889C12.514 343.35 18.561 349.398 26.022 349.398H62.044C54.582 349.397 48.536 343.349 48.536 335.888Z" fill="#A08D70"/>
<path d="M84.5599 182.417H12.5129V316H84.5599V182.417Z" fill="#C6A875"/>
<path d="M48.5359 182.417H12.5129V316H48.5359V182.417Z" fill="#B5915D"/>
<path d="M475.523 102.772C461.026 87.607 445.535 79.123 438.088 76.786L438.094 76.807C399.487 60.46 356.997 67.916 322.077 91.096C307.106 81.156 290.882 74.193 274.265 70.678C268.755 69.765 265.117 73.176 264.285 78.039L264.283 78.037C258.048 99.281 234.046 109.636 214.364 99.723C214.364 99.723 214.364 99.723 214.362 99.723C205.369 95.164 203.548 103.462 202.089 104.871C192.395 119.396 176.111 129.124 157.507 129.816L157.515 129.839C157.515 129.839 148.824 129.627 145.83 136.544C113.277 206.371 140.532 299.455 205.921 344.791C191.125 459.003 260.564 557.63 264.906 475.232C265.63 461.728 261.635 396.401 305.017 383.868C305.02 383.868 305.032 383.86 305.032 383.86C316.187 380.501 327.178 380.267 339.122 383.86L339.132 383.868C351.656 387.474 364.792 398.626 371.811 417.334C372.22 418.492 372.692 419.954 372.692 419.954C383.219 453.052 375.713 473.786 382.202 494.216C396.246 538.389 451.59 447.94 438.229 344.791C517.376 289.921 537.582 168.709 475.523 102.772Z" fill="#B0DCF7"/>
<path d="M227.304 346.053C227.977 333.369 220.061 327.264 220.061 327.264L220.07 327.254C162.429 281.196 137.86 195.714 167.035 128.629C163.945 129.281 160.764 129.694 157.509 129.816L157.517 129.839C157.517 129.839 148.826 129.627 145.832 136.544C113.151 206.647 140.749 299.603 205.923 344.791C192.129 451.266 251.639 544.549 263.23 489.235C246.156 473.41 222.853 419.937 227.304 346.053Z" fill="#7AC1DD"/>
<path d="M475.523 102.772C461.026 87.607 445.535 79.123 438.088 76.786L438.094 76.807C401.323 61.238 360.16 67.036 325.081 89.152C285.506 206.527 332.249 336.366 439.16 401.305C440.821 383.479 440.764 364.365 438.228 344.793C517.376 289.921 537.582 168.709 475.523 102.772Z" fill="#BBE6FC"/>
<path d="M107.513 21.4631V41.6921C107.513 50.0731 100.719 56.8641 92.3421 56.8641H55.8721C47.4941 56.8641 40.701 50.0721 40.701 41.6921V21.4631C40.701 13.0831 47.4951 6.28906 55.8721 6.28906H92.3411C100.72 6.28806 107.513 13.0831 107.513 21.4631Z" fill="#DBDADF"/>
<path d="M92.342 33.1801H55.872C48.079 33.1801 41.665 27.3011 40.806 19.7371C40.661 21.0171 40.701 19.6521 40.701 41.6921C40.701 50.0731 47.495 56.8641 55.872 56.8641H92.341C100.719 56.8641 107.512 50.0721 107.512 41.6921C107.512 19.6641 107.552 21.0081 107.407 19.7371C106.55 27.3021 100.134 33.1801 92.342 33.1801Z" fill="#B8BFC1"/>
</svg>
