<svg class="services-svg" preserveAspectRatio="none" viewBox="0 0 512 512" fill="none" xmlns="http://www.w3.org/2000/svg">
<g clip-path="url(#clip0)">
<path d="M255.998 61.0039C361.369 61.0039 446.794 146.428 446.794 251.8V321.18C446.794 426.551 361.37 511.976 255.998 511.976C150.627 511.976 65.2019 426.552 65.2019 321.18V251.8C65.2029 146.429 150.627 61.0039 255.998 61.0039Z" fill="#FBCCAD"/>
<path d="M13.168 277.817C13.168 301.762 32.586 321.18 56.531 321.18H65.204V234.455H56.53C32.585 234.455 13.168 253.873 13.168 277.817Z" fill="#FAB98F"/>
<path d="M455.467 234.455H446.794V321.18H455.467C479.412 321.18 498.83 301.762 498.83 277.817C498.83 253.872 479.42 234.455 455.467 234.455Z" fill="#FAB98F"/>
<path d="M143.256 277.783C157.625 277.783 169.274 266.134 169.274 251.765C169.274 237.396 157.625 225.747 143.256 225.747C128.887 225.747 117.238 237.396 117.238 251.765C117.238 266.134 128.887 277.783 143.256 277.783Z" fill="#4398D1"/>
<path d="M368.741 277.783C383.11 277.783 394.759 266.134 394.759 251.765C394.759 237.396 383.11 225.747 368.741 225.747C354.372 225.747 342.723 237.396 342.723 251.765C342.723 266.134 354.372 277.783 368.741 277.783Z" fill="#4398D1"/>
<path d="M169.273 312.508H342.724C342.724 360.406 303.897 399.233 255.999 399.233C208.109 399.233 169.273 360.406 169.273 312.508Z" fill="#F28585"/>
<path d="M359.54 148.597C359.965 95.9108 317.6 52.8609 264.914 52.4359C264.897 52.4359 264.888 52.4359 264.871 52.4359L256.198 52.3669L241.403 52.2539C225.602 52.1499 212.87 39.2539 212.974 23.4439C213.009 18.2399 214.466 13.1409 217.18 8.70085H213.225C174.91 8.44085 143.628 39.2798 143.368 77.6038C143.307 85.8948 144.738 94.1338 147.592 101.922C157.539 129.076 183.288 147.21 212.202 147.435L359.54 148.597Z" fill="#F9BC61"/>
<path d="M289.206 147.73H306.75C302.466 118.061 277.168 95.9552 247.196 95.6952L215.975 95.4612C197.355 95.2882 181.146 82.7042 176.35 64.7172C171.025 44.5882 183.028 23.9562 203.157 18.6312C206.392 17.7722 209.731 17.3562 213.078 17.3822L221.308 17.4772L221.438 0.132153L213.234 0.00215298C182.837 -0.231847 158.007 24.2332 157.773 54.6302C157.738 59.5212 158.354 64.3952 159.603 69.1222C166.411 94.6632 189.428 112.528 215.862 112.771L247.083 113.005C267.559 113.204 285.112 127.67 289.206 147.73Z" fill="#F8AC4F"/>
<path d="M255.998 312.473H221.308V347.163H255.998V312.473Z" fill="#E6E6E6"/>
<path d="M290.688 312.473H255.998V347.163H290.688V312.473Z" fill="#E6E6E6"/>
<path d="M264.671 312.473H247.326V347.163H264.671V312.473Z" fill="#DEDEDE"/>
<path d="M411.549 141.347C411.879 147.73 412.104 154.217 412.104 160.739C412.104 325.985 305.328 459.941 173.61 459.941C154.262 459.924 135.026 457.001 116.545 451.268C188.328 528.341 308.997 532.625 386.07 460.842C424.828 424.738 446.83 374.143 446.795 321.18V251.8C446.846 212.21 434.522 173.591 411.549 141.347Z" fill="#FFC096"/>
</g>
<defs>
<clipPath id="clip0">
<rect width="511.997" height="511.997" fill="white"/>
</clipPath>
</defs>
</svg>
