<svg preserveAspectRatio="none" viewBox="0 0 513 513" fill="none" xmlns="http://www.w3.org/2000/svg">
<g clip-path="url(#clip0)">
<path d="M396.949 247.833C400.492 213.952 391.407 181.102 381.927 165.993V165.994C371.691 148.654 361.177 134.729 340.722 122.886V122.885C305.921 102.831 261.722 104.872 222.979 130.578C182.977 104.037 138.876 103.575 105.236 122.885L105.237 122.886C87.243 133.228 73.554 148.31 64.042 165.978L64.032 165.995C64.032 165.995 64.032 165.994 64.031 165.994C32.374 217.249 46.79 315.894 116.113 363.994C104.202 455.949 151.631 536.955 166.368 504.84C173.951 488.333 166.259 465.412 177.244 430.681C182.945 414.295 195.668 403.342 207.291 399.947C207.783 399.552 215.665 397.58 222.98 397.511C230.284 397.58 238.17 399.549 238.669 399.947C250.085 403.281 262.923 414.035 268.716 430.681C275.999 450.758 275.29 474.62 275.432 480.212C277.447 562.468 343.727 471.072 329.848 363.994C368.185 337.406 392.829 291.852 396.949 247.833Z" fill="#B0DCF7"/>
<path d="M134.972 384.091C134.922 362.197 138.076 356.201 133.644 351.494C76.25 309.052 52.023 226.408 81.58 162.215C82.147 160.988 84.238 156.716 84.789 155.814C84.789 155.814 84.789 155.815 84.79 155.815C86.771 152.795 96.813 131.319 121.779 115.266C116.153 117.263 110.567 119.824 105.234 122.885L105.235 122.886C87.241 133.228 73.552 148.31 64.04 165.978L64.03 165.995C64.03 165.995 64.03 165.994 64.029 165.994C32.508 217.029 46.56 315.735 116.111 363.994C103.411 462.043 158.142 547.498 168.811 497.039C153.064 482.527 135.095 437.253 134.972 384.091Z" fill="#7AC1DD"/>
<path d="M381.926 165.993C371.69 148.654 361.176 134.729 340.721 122.885C306.218 103.003 262.359 104.777 223.653 130.141C217.043 224.471 259.968 310.625 330.931 363.221C368.681 336.449 392.863 291.498 396.95 247.833C400.493 213.952 391.406 181.103 381.926 165.993Z" fill="#C5E7F9"/>
<path d="M431.27 140.219C395.041 140.219 365.566 110.743 365.566 74.515C365.566 71.142 362.831 68.408 359.459 68.408C356.085 68.408 353.352 71.142 353.352 74.515C353.352 110.743 323.876 140.219 287.648 140.219C284.274 140.219 281.541 142.953 281.541 146.326C281.541 149.699 284.274 152.433 287.648 152.433C323.877 152.433 353.352 181.909 353.352 218.138C353.352 221.511 356.085 224.245 359.459 224.245C362.831 224.245 365.566 221.511 365.566 218.138C365.566 181.908 395.042 152.433 431.27 152.433C434.644 152.433 437.377 149.699 437.377 146.326C437.377 142.953 434.644 140.219 431.27 140.219Z" fill="#F9C146"/>
<path d="M332.067 146.326C352.8 135.33 366.983 113.566 367.086 88.529C366.1 84.01 365.566 79.325 365.566 74.514C365.566 71.141 362.831 68.407 359.459 68.407C356.085 68.407 353.352 71.141 353.352 74.514C353.352 110.867 323.715 140.218 287.648 140.218C284.274 140.218 281.541 142.952 281.541 146.325C281.541 149.693 284.269 152.433 287.648 152.433C288.838 152.433 290.021 152.467 291.195 152.531C325.853 154.435 353.352 183.148 353.352 218.138C353.352 221.511 356.085 224.245 359.459 224.245C362.831 224.245 365.566 221.511 365.566 218.138C365.566 213.327 366.099 208.642 367.086 204.124C366.983 179.087 352.799 157.325 332.067 146.326Z" fill="#F79D31"/>
<path d="M457.837 45.674C440.581 45.674 426.545 31.636 426.545 14.379C426.545 11.006 423.81 8.27197 420.438 8.27197C417.064 8.27197 414.331 11.006 414.331 14.379C414.331 31.636 400.292 45.674 383.036 45.674C379.662 45.674 376.929 48.408 376.929 51.782C376.929 55.155 379.662 57.889 383.036 57.889C400.291 57.889 414.331 71.927 414.331 89.184C414.331 92.557 417.064 95.292 420.438 95.292C423.81 95.292 426.545 92.557 426.545 89.184C426.545 71.927 440.581 57.889 457.837 57.889C461.209 57.889 463.945 55.155 463.945 51.782C463.946 48.408 461.21 45.674 457.837 45.674Z" fill="#F9C146"/>
<path d="M411.946 51.782C420.763 45.664 426.552 35.4739 426.552 23.9509C426.552 22.8879 426.809 21.8879 427.254 20.999C426.792 18.8639 426.544 16.6509 426.544 14.3799C426.544 11.0069 423.809 8.27295 420.437 8.27295C417.063 8.27295 414.33 11.0069 414.33 14.3799C414.33 29.388 403.709 41.958 389.59 44.9799C389.59 44.9799 386.677 45.6749 383.035 45.6749C379.661 45.6749 376.928 48.409 376.928 51.783C376.928 55.151 379.656 57.8909 383.035 57.8909C385.282 57.8909 387.473 58.135 389.588 58.587C389.588 58.587 389.589 58.5859 389.59 58.5859C403.708 61.6069 414.33 74.1769 414.33 89.1849C414.33 92.5579 417.063 95.2929 420.437 95.2929C423.809 95.2929 426.544 92.5579 426.544 89.1849C426.544 86.9139 426.792 84.702 427.254 82.5669C426.809 81.6769 426.552 80.6769 426.552 79.6149C426.554 68.0909 420.764 57.9 411.946 51.782Z" fill="#F79D31"/>
<path d="M291.579 70.1579C294.951 70.1579 297.686 67.4239 297.686 64.0509C297.686 51.4459 307.941 41.1889 320.548 41.1889C323.92 41.1889 326.655 38.4549 326.655 35.0819C326.655 31.7089 323.92 28.9749 320.548 28.9749C307.942 28.9749 297.686 18.7189 297.686 6.11093C297.686 2.73793 294.951 0.00292969 291.579 0.00292969C288.205 0.00292969 285.472 2.73693 285.472 6.11093C285.472 18.7179 275.216 28.9749 262.609 28.9749C259.237 28.9749 256.502 31.7089 256.502 35.0819C256.502 38.4549 259.237 41.1889 262.609 41.1889C275.215 41.1889 285.472 51.4449 285.472 64.0509C285.471 67.4239 288.204 70.1579 291.579 70.1579Z" fill="#F9C146"/>
<path d="M286.023 35.081C292.379 31.015 296.606 23.899 296.606 15.809C296.606 14.15 297.27 12.648 298.344 11.546C297.916 9.803 297.686 7.983 297.686 6.108C297.686 2.735 294.951 0 291.579 0C288.205 0 285.472 2.734 285.472 6.108C285.472 18.714 275.216 28.97 262.609 28.97C259.24 28.97 256.502 31.702 256.502 35.079C256.502 38.452 259.237 41.186 262.609 41.186C275.326 41.186 285.472 51.549 285.472 64.048C285.472 67.421 288.205 70.155 291.579 70.155C294.951 70.155 297.686 67.421 297.686 64.048C297.686 62.174 297.916 60.355 298.344 58.611C297.27 57.509 296.606 56.007 296.606 54.348C296.607 46.261 292.38 39.145 286.023 35.081Z" fill="#F79D31"/>
</g>
<defs>
<clipPath id="clip0">
<rect width="512.002" height="512.002" fill="white"/>
</clipPath>
</defs>
</svg>
