<svg class="services-svg" preserveAspectRatio="none" viewBox="0 0 302 512" fill="none" xmlns="http://www.w3.org/2000/svg">
<g clip-path="url(#clip0)">
<path d="M93.269 340.982V458.492C93.269 460.82 94.248 463.043 95.963 464.617C149.088 513.315 146.429 511.997 150.883 511.997C155.338 511.997 152.674 513.319 205.803 464.617C207.519 463.043 208.497 460.82 208.497 458.492V340.982H93.269Z" fill="#AA9A79"/>
<path d="M117.815 340.982H93.27V458.492C93.27 463.222 94.474 463.251 115.454 482.481C115.404 481.781 115.422 347.517 115.422 346.815C115.421 344.541 116.336 342.482 117.815 340.982Z" fill="#938265"/>
<path d="M205.502 388.967C209.478 390.624 214.036 388.739 215.687 384.773C217.34 380.802 215.464 376.241 211.493 374.588L130.845 340.982H90.563C91.379 341.464 84.879 338.705 205.502 388.967Z" fill="#776A57"/>
<path d="M205.487 464.733L90.2729 416.727C86.3009 415.073 84.4249 410.511 86.0789 406.542C87.7339 402.57 92.2939 400.691 96.2649 402.348L211.479 450.355C215.449 452.009 217.328 456.571 215.672 460.54C214.011 464.528 209.431 466.384 205.487 464.733Z" fill="#776A57"/>
<path d="M180.533 492.224L90.2729 454.614C86.3009 452.96 84.4249 448.399 86.0789 444.428C87.7339 440.457 92.2939 438.577 96.2649 440.235L186.525 477.845C190.495 479.499 192.374 484.06 190.718 488.03C189.057 492.019 184.477 493.874 180.533 492.224Z" fill="#776A57"/>
<path d="M205.438 426.826L90.2729 378.84C86.3009 377.186 84.4249 372.624 86.0789 368.655C87.7339 364.683 92.2939 362.805 96.2649 364.462L211.43 412.448C215.4 414.102 217.279 418.663 215.623 422.633C213.962 426.623 209.378 428.475 205.438 426.826Z" fill="#776A57"/>
<path d="M215.821 240.73H244.33C244.2 233.575 243.693 226.266 242.733 218.873C288.296 187.287 307.464 128.572 299.625 85.382C287.846 9.72196 213.954 -23.584 150.884 18.255C124.099 0.483965 91.156 -5.96104 60.549 6.35996C-17.09 37.611 -20.947 163.435 59.033 218.873C58.075 226.266 57.566 233.575 57.436 240.73H189.857" fill="#B0DCF7"/>
<path d="M76.0709 208.6C4.39192 154.831 2.88792 38.864 73.8509 2.21802C-15.1961 22.392 -26.2911 159.729 59.0339 218.872C58.0759 226.265 57.5669 233.574 57.4369 240.729H78.2669C78.4189 234.274 78.7579 223.871 79.3059 216.517C79.7799 214.446 78.3849 210.241 76.0709 208.6Z" fill="#7AC1DD"/>
<path d="M154.598 15.896C128.303 86.803 131.895 169.41 170.936 240.729C179.113 240.729 236.13 240.729 244.33 240.729C244.2 233.574 243.693 226.265 242.733 218.872C288.296 187.286 307.464 128.571 299.625 85.381C288.117 11.465 217.125 -22.354 154.598 15.896Z" fill="#BBE6FC"/>
<path d="M71.394 312.65C71.394 319.976 71.394 323.082 71.394 331.275C71.394 338.346 77.1261 344.079 84.1971 344.079H217.571C224.642 344.079 230.375 338.346 230.375 331.275C230.375 327.871 230.375 316.691 230.375 312.65H71.394Z" fill="#C6A875"/>
<path d="M71.394 312.65C71.394 319.976 71.394 323.082 71.394 331.275C71.394 338.346 77.1261 344.079 84.1971 344.079H105.035C97.9641 344.079 92.232 338.346 92.232 331.275C92.232 321.705 92.232 316.86 92.232 312.65H71.394Z" fill="#B5915D"/>
<path d="M245.307 239.691C252.378 239.691 258.111 245.424 258.111 252.495V302.106C258.111 309.177 252.378 314.909 245.307 314.909H56.4619C49.3889 314.909 43.6589 309.177 43.6589 302.106V252.495C43.6589 245.423 49.3889 239.691 56.4619 239.691" fill="#AA9A79"/>
<path d="M64.429 302.107V252.496C64.429 245.424 70.159 239.692 77.233 239.692H56.461C49.388 239.692 43.658 245.425 43.658 252.496V302.107C43.658 309.178 49.388 314.91 56.461 314.91H77.2319C70.1589 314.91 64.429 309.178 64.429 302.107Z" fill="#938265"/>
<path d="M245.307 239.691H170.363C185.823 268.23 206.248 293.683 230.469 314.91H245.307C252.378 314.91 258.111 309.178 258.111 302.107V252.496C258.111 245.424 252.378 239.691 245.307 239.691Z" fill="#B7A68A"/>
</g>
<defs>
<clipPath id="clip0">
<rect width="302" height="512" fill="white"/>
</clipPath>
</defs>
</svg>
