<svg preserveAspectRatio="none" viewBox="0 0 453 404" fill="none" xmlns="http://www.w3.org/2000/svg">
<path d="M400.89 138.833C404.433 104.952 395.348 72.102 385.868 56.993V56.9941C375.632 39.6541 365.118 25.7291 344.663 13.8861V13.8851C309.862 -6.16895 265.663 -4.12794 226.92 21.5781C186.918 -4.96295 142.817 -5.42495 109.177 13.8851L109.178 13.8861C91.1842 24.2281 77.4952 39.31 67.9832 56.978L67.9732 56.995C67.9732 56.995 67.9732 56.9941 67.9722 56.9941C36.3152 108.249 50.7312 206.894 120.054 254.994C108.143 346.949 155.572 427.955 170.309 395.84C177.892 379.333 170.2 356.412 181.185 321.681C186.886 305.295 199.609 294.342 211.232 290.947C211.724 290.552 219.606 288.58 226.921 288.511C234.225 288.58 242.111 290.549 242.61 290.947C254.026 294.281 266.864 305.035 272.657 321.681C279.94 341.758 279.231 365.62 279.373 371.212C281.388 453.468 347.668 362.072 333.789 254.994C372.126 228.406 396.77 182.852 400.89 138.833Z" fill="#B0DCF7"/>
<path d="M138.913 275.091C138.863 253.197 142.017 247.201 137.585 242.494C80.1912 200.052 55.9642 117.408 85.5212 53.2151C86.0882 51.9881 88.1792 47.7161 88.7302 46.8141C88.7302 46.8141 88.7302 46.8151 88.7312 46.8151C90.7122 43.7951 100.754 22.3191 125.72 6.26611C120.094 8.26311 114.508 10.8241 109.175 13.8851L109.176 13.8861C91.1822 24.2281 77.4932 39.3101 67.9812 56.9781L67.9712 56.9951C67.9712 56.9951 67.9712 56.9941 67.9702 56.9941C36.4492 108.029 50.5012 206.735 120.052 254.994C107.352 353.043 162.083 438.498 172.752 388.039C157.005 373.527 139.036 328.253 138.913 275.091Z" fill="#7AC1DD"/>
<path d="M385.867 56.993C375.631 39.654 365.117 25.729 344.662 13.885V13.884C310.159 -5.99801 266.3 -4.223 227.594 21.141C220.984 115.471 263.909 201.625 334.872 254.221C372.622 227.449 396.804 182.498 400.891 138.833C404.434 104.952 395.347 72.103 385.867 56.993Z" fill="#C5E7F9"/>
<path d="M447.608 152H5.39253C2.41365 152 0 145.507 0 137.5C0 129.49 2.41466 123 5.39253 123H447.607C450.585 123 453 129.493 453 137.5C453.001 145.51 450.586 152 447.608 152Z" fill="#A5C3DC"/>
<path d="M287.75 204.579H166.25C155.067 204.579 146 194.61 146 182.316V93.2631C146 80.9683 155.067 71 166.25 71H287.75C298.933 71 308 80.9683 308 93.2631V182.316C308 194.61 298.933 204.579 287.75 204.579Z" fill="#555A6E"/>
<path d="M146 122.95H307.999V152.635H146V122.95Z" fill="#463C4B"/>
<path d="M193.249 174.895C182.066 174.895 172.999 164.927 172.999 152.632V122.947C172.999 110.652 182.066 100.684 193.249 100.684C204.432 100.684 213.499 110.652 213.499 122.947V152.632C213.499 164.93 204.432 174.895 193.249 174.895Z" fill="#A5C3DC"/>
<path d="M260.751 174.895C249.568 174.895 240.501 164.927 240.501 152.632V122.947C240.501 110.652 249.568 100.684 260.751 100.684C271.934 100.684 281.001 110.652 281.001 122.947V152.632C281.001 164.93 271.937 174.895 260.751 174.895Z" fill="#A5C3DC"/>
</svg>
