<svg preserveAspectRatio="true" viewBox="0 0 512 512" fill="none" xmlns="http://www.w3.org/2000/svg">
<path d="M431.139 137.732C396.378 137.732 368.098 109.452 368.098 74.6919C368.098 70.5489 364.741 67.1929 360.599 67.1929C356.456 67.1929 353.1 70.5499 353.1 74.6919C353.1 88.9549 348.332 102.122 340.316 112.696C306.71 95.6379 264.368 97.5389 226.538 120.86C154.756 76.6129 67.7289 110.006 49.9029 200.872C38.8799 257.886 62.8549 324.893 113.593 362.548C104.86 442.454 140.244 523.431 168.443 510.661V510.662C189.407 501.253 177.189 459.693 188.645 427.151C202.642 388.762 262.923 383.174 269.726 452.479C271.349 470.012 269.165 485.406 274.762 499.201C276.621 503.992 280.186 508.926 285.004 510.817C313.639 522.841 348.062 441.051 339.484 362.547C359.936 347.37 376.774 326.903 388.502 302.774C390.312 299.049 388.761 294.562 385.035 292.752C381.308 290.938 376.822 292.492 375.013 296.219C368.482 309.654 361.813 318.367 361.156 319.401C334.366 354.527 322.846 350.522 324.076 360.007C333.582 433.389 303.14 495.225 290.759 496.957C289.478 496.063 288.446 492.999 288.018 491.777C286.852 487.732 285.793 482.706 285.56 473.013C285.488 470.214 286.094 441.423 278.513 421.988C260.859 371.495 191.074 371.285 173.798 424.238C164.253 452.196 170.305 482.599 163.712 495.091C163.36 495.75 162.897 496.488 162.324 496.958C150.104 495.248 119.444 433.763 129.002 360.006C129.362 357.226 128.142 354.477 125.838 352.88C87.2249 326.115 61.7759 277.501 62.3319 227.523C63.7809 134.235 148.373 86.9019 222.393 136.013C224.907 137.679 228.173 137.68 230.686 136.012C263.539 114.212 299.753 111.212 329.202 124.056C317.854 133.075 304.019 137.734 290.062 137.734C285.919 137.734 282.563 141.091 282.563 145.233C282.563 149.375 285.92 152.732 290.062 152.732C324.822 152.732 353.102 181.012 353.102 215.773C353.102 219.916 356.459 223.272 360.601 223.272C364.743 223.272 368.1 219.915 368.1 215.773C368.1 202.158 372.489 188.908 380.764 177.921C393.522 208.121 393.489 242.745 383.913 273.691C382.688 277.648 384.904 281.847 388.861 283.072C392.817 284.299 397.017 282.081 398.242 278.124C409.902 240.44 407.234 201.824 395.572 174.51L395.62 174.621C394.861 172.564 392.992 168.441 392.018 166.394C402.776 157.852 416.368 152.731 431.14 152.731C435.283 152.731 438.639 149.374 438.639 145.232C438.639 141.09 435.282 137.732 431.139 137.732ZM360.569 182.338C352.911 166.263 340.036 153.242 323.428 145.232C338.792 137.935 352.468 125.183 360.599 108.061C368.323 124.323 381.508 137.508 397.77 145.232C381.555 152.933 368.199 166.284 360.569 182.338Z" fill="#C5E7F9"/>
<path d="M457.236 44.863C441.114 44.863 427.998 31.746 427.998 15.623C427.998 11.48 424.641 8.12402 420.499 8.12402C416.357 8.12402 413 11.48 413 15.623C413 31.746 399.883 44.863 383.76 44.863C379.617 44.863 376.261 48.22 376.261 52.362C376.261 56.504 379.618 59.861 383.76 59.861C399.883 59.861 413 72.978 413 89.102C413 93.245 416.357 96.601 420.499 96.601C424.641 96.601 427.998 93.244 427.998 89.102C427.998 72.978 441.114 59.861 457.236 59.861C461.379 59.861 464.735 56.504 464.735 52.362C464.735 48.22 461.378 44.863 457.236 44.863ZM420.498 64.482C417.283 59.701 413.159 55.577 408.378 52.362C413.159 49.147 417.283 45.023 420.498 40.242C423.713 45.023 427.836 49.147 432.617 52.362C427.836 55.577 423.713 59.701 420.498 64.482Z" fill="#C5E7F9"/>
<path d="M265.466 43.457C277.022 43.457 286.422 52.858 286.422 64.414C286.422 68.557 289.78 71.913 293.921 71.913C298.064 71.913 301.42 68.556 301.42 64.414C301.42 52.858 310.821 43.457 322.377 43.457C326.52 43.457 329.876 40.1 329.876 35.958C329.876 31.816 326.519 28.459 322.377 28.459C310.821 28.459 301.42 19.058 301.42 7.50095C301.42 3.35795 298.063 0.00195312 293.921 0.00195312C289.779 0.00195312 286.422 3.35895 286.422 7.50095C286.422 19.058 277.022 28.459 265.466 28.459C261.324 28.459 257.967 31.817 257.967 35.958C257.966 40.1 261.324 43.457 265.466 43.457ZM293.922 29.456C295.804 31.889 297.991 34.076 300.424 35.958C297.991 37.839 295.804 40.027 293.922 42.459C292.041 40.026 289.853 37.838 287.42 35.958C289.853 34.075 292.042 31.889 293.922 29.456Z" fill="#C5E7F9"/>
</svg>
