<svg preserveAspectRatio="true" viewBox="0 0 453 429" fill="none" xmlns="http://www.w3.org/2000/svg">
<path d="M297.735 2.10723C273.994 1.89031 249.265 9.18823 226.439 24.3277C184.68 -3.36805 138.255 -3.96053 103.098 15.9856L103.081 15.9938L102.652 16.2421L102.648 16.2442C83.7724 27.0892 69.3296 42.978 59.3364 61.533L59.3261 61.5515L57.326 64.9507L57.2808 65.0287C42.238 91.9699 38.4654 129.26 46.8924 166.839C55.6504 205.895 77.6647 244.384 114.084 269.644C107.805 318.097 117.057 363.182 129.996 392.556C136.589 407.524 143.048 417.156 150.368 422.371C153.354 424.666 158.821 425.731 159.802 425.315C170.272 422.186 170.875 400.799 171.213 388.469V388.465C171.24 387.622 171.267 386.762 171.295 385.883V385.876C171.716 373.059 172.564 358.044 178.349 339.75L178.351 339.742C178.352 339.737 178.354 339.733 178.355 339.729L178.359 339.721C184.227 322.869 197.588 311.24 209.451 307.578L209.795 307.471L210.13 307.333C210.222 307.295 210.362 307.244 210.477 307.206H210.481L210.484 307.204C210.757 307.114 211.191 306.988 211.66 306.865L211.662 306.863C212.609 306.615 213.964 306.31 215.5 306.022L215.506 306.02C218.547 305.452 222.648 304.905 226.423 304.868H226.429H226.441H226.452H226.458C230.23 304.905 234.332 305.452 237.372 306.02C238.91 306.307 240.266 306.614 241.218 306.863C241.689 306.986 242.12 307.112 242.385 307.2C242.531 307.249 242.67 307.3 242.75 307.333L243.085 307.471L243.43 307.578C255.079 311.174 268.534 322.559 274.511 339.686L274.526 339.731L274.542 339.774C281.223 358.219 281.522 380.897 281.563 389.333C281.567 390.232 281.571 390.938 281.585 391.586V391.689L281.587 391.784V391.786C281.855 402.743 282.181 409.948 284.338 415.576C285.785 419.511 287.675 421.598 290.625 423.883C295.219 426.893 300.81 423.854 304.469 420.803C308.53 417.303 312.434 412.256 316.459 405.336C332.614 377.557 346.128 326.165 338.799 269.644C379.238 241.607 404.98 194.089 409.343 147.59L409.345 147.569L409.348 147.559V147.557V147.555C412.918 113.413 404.771 81.6126 395.164 64.2827L395.113 64.1883L393.554 61.5485C382.898 43.5069 371.395 28.4943 350.229 16.2442V16.2421L349.991 16.1046L349.975 16.0964C334.066 6.99108 316.2 2.27595 297.735 2.10723ZM161.49 17.9089C179.782 18.8705 199.011 25.0544 217.72 37.463L226.439 43.2475L235.158 37.463C271.482 13.3707 311.171 12.0528 342.139 29.7777L342.328 29.8865C360.931 40.6537 369.835 52.3979 379.972 69.5632L381.38 71.9484C388.668 85.1101 396.848 115.445 393.66 145.922V145.938L393.658 145.957L393.652 146.008L393.645 146.076L393.643 146.092C389.74 187.778 365.909 231.662 329.809 256.69L321.924 262.156L323.158 271.67C330.001 324.438 316.546 373.814 302.823 397.413C301.289 400.049 299.824 402.139 298.457 403.952C297.919 400.719 297.481 396.649 297.352 391.404C297.352 391.402 297.352 391.402 297.352 391.4V391.388C297.343 390.992 297.336 390.232 297.332 389.261V389.257V389.255C297.291 380.828 297.359 356.519 289.387 334.466C281.749 312.612 265.138 297.78 248.084 292.515L248.763 292.759C248.182 292.519 247.697 292.353 247.365 292.242H247.363H247.361C246.608 291.992 245.894 291.791 245.209 291.612H245.207C243.804 291.245 242.139 290.874 240.266 290.524C236.557 289.831 231.71 289.154 226.588 289.106L226.44 289.103L226.29 289.106C221.162 289.154 216.312 289.832 212.604 290.524H212.602L212.6 290.526C210.729 290.877 209.066 291.247 207.663 291.614C206.978 291.793 206.27 291.993 205.53 292.238C205.168 292.357 204.685 292.524 204.115 292.759L204.795 292.515C187.431 297.876 170.97 312.968 163.458 334.55V334.555L163.393 334.741L163.325 334.953L163.316 334.977C156.902 355.253 155.963 372.244 155.532 385.365V385.369V385.371C155.503 386.258 155.477 387.12 155.45 387.958V387.962V387.964C155.233 394.797 154.954 399.784 154.415 403.735C151.44 399.72 147.847 393.967 144.427 386.203H144.429C132.799 359.799 123.863 316.884 129.722 271.668L130.954 262.16L123.073 256.692C90.3853 234.019 70.2881 199.097 62.281 163.39C54.5791 129.045 58.5398 95.148 71.0349 72.7449L72.92 69.5447L72.9303 69.5262L73.0822 69.2676L73.2239 69.0048V69.0027C82.0011 52.7063 94.3746 39.1798 110.506 29.9111L110.884 29.6956C125.844 21.2088 143.198 16.9474 161.49 17.9089Z" fill="#C5E7F9"/>
<path d="M162.652 76.2695C151.06 76.2695 141.362 86.5967 141.362 99.6683V193.261C141.362 206.333 151.059 216.658 162.652 216.658H290.393C301.986 216.658 311.684 206.332 311.684 193.261V99.6683C311.684 86.5973 301.986 76.2695 290.393 76.2695H162.652ZM162.652 92.0343H290.393C292.233 92.0343 295.913 94.1633 295.913 99.6683V193.261C295.913 198.766 292.233 200.893 290.393 200.893H162.652C160.814 200.893 157.132 198.765 157.132 193.261V99.6683C157.132 94.1639 160.814 92.0343 162.652 92.0343Z" fill="#C5E7F9"/>
<path d="M191.037 107.466C179.445 107.466 169.747 117.793 169.747 130.865V162.064C169.747 175.134 179.444 185.46 191.037 185.46C202.629 185.46 212.327 175.135 212.327 162.064V130.865C212.327 117.793 202.629 107.466 191.037 107.466ZM191.037 123.231C192.877 123.231 196.557 125.359 196.557 130.865V162.064C196.557 167.572 192.88 169.696 191.037 169.696C189.198 169.696 185.517 167.568 185.517 162.064V130.865C185.517 125.359 189.197 123.231 191.037 123.231Z" fill="#C5E7F9"/>
<path d="M262.009 107.466C250.417 107.466 240.718 117.793 240.718 130.865V162.064C240.718 175.135 250.416 185.46 262.009 185.46C273.6 185.46 283.299 175.134 283.299 162.064V130.865C283.299 117.793 273.601 107.466 262.009 107.466ZM262.009 123.231C263.849 123.231 267.528 125.359 267.528 130.865V162.064C267.528 167.574 263.856 169.696 262.009 169.696C260.171 169.696 256.489 167.567 256.489 162.064V130.865C256.489 125.359 260.17 123.231 262.009 123.231Z" fill="#C5E7F9"/>
<path d="M311.536 138.277V154.042H451.636V138.277H311.536Z" fill="#C5E7F9"/>
<path d="M1.88684 138.803V154.567H141.986V138.803H1.88684Z" fill="#C5E7F9"/>
</svg>
