<svg preserveAspectRatio="true" viewBox="0 0 480 480" fill="none" xmlns="http://www.w3.org/2000/svg">
<g clip-path="url(#clip0)">
<path d="M423.713 208H422.113C413.688 141.586 369.604 85.104 307.225 60.8C290.314 47.331 269.333 39.997 247.713 40H226.065C215.903 40.008 207.659 31.776 207.651 21.614C207.648 18.269 208.558 14.987 210.281 12.12C212.556 8.33301 211.331 3.41801 207.544 1.14201C206.298 0.393007 204.871 -0.00199244 203.417 7.55736e-06H199.713C197.651 0.00400756 195.592 0.130008 193.545 0.376008C154.112 3.66501 124.811 38.298 128.1 77.731C128.304 80.18 128.634 82.617 129.089 85.032C89.7239 114.804 63.8949 159.079 57.3529 208H55.7129C29.2029 208 7.71289 229.49 7.71289 256C7.71289 282.51 29.2029 304 55.7129 304H55.9129C60.6499 405.51 146.78 483.96 248.29 479.223C343.169 474.796 419.086 398.879 423.513 304H423.713C450.223 304 471.713 282.51 471.713 256C471.713 229.49 450.223 208 423.713 208ZM55.7129 232V288C38.0399 288 23.7129 273.673 23.7129 256C23.7129 238.327 38.0399 224 55.7129 224H55.9529C55.8329 226.664 55.7129 229.32 55.7129 232ZM407.713 296C407.713 388.784 332.497 464 239.713 464C146.929 464 71.7129 388.784 71.7129 296V232C71.8369 181.249 94.7979 133.25 134.233 101.304C145.813 127.158 171.44 143.854 199.769 144H223.713V128H199.769C176.449 127.928 155.592 113.474 147.337 91.664C141.99 77.636 142.599 62.032 149.025 48.464C148.78 53.742 149.354 59.026 150.729 64.128C157.18 87.641 178.532 103.955 202.913 104H231.713C253.793 104.026 271.687 121.92 271.713 144H287.713C287.678 113.087 262.626 88.035 231.713 88H202.913C185.723 87.992 170.659 76.498 166.113 59.92C161.059 41.4 171.976 22.289 190.497 17.236C190.98 17.104 191.465 16.983 191.953 16.872C190.907 24.358 192.373 31.98 196.121 38.544C202.167 49.393 213.645 56.084 226.065 56H247.713C291.876 56.049 327.665 91.837 327.713 136V144H343.713V136C343.711 120.774 340.057 105.77 333.057 92.248C379.888 123.288 407.949 175.817 407.713 232V296V296ZM423.713 288V232C423.713 229.312 423.529 226.664 423.409 224H423.713C441.386 224 455.713 238.327 455.713 256C455.713 273.673 441.387 288 423.713 288Z" fill="#C5E7F9"/>
<path d="M135.713 200C118.04 200 103.713 214.327 103.713 232C103.713 249.673 118.04 264 135.713 264C153.386 264 167.713 249.673 167.713 232C167.713 214.327 153.387 200 135.713 200ZM135.713 248C126.876 248 119.713 240.837 119.713 232C119.713 223.163 126.876 216 135.713 216C144.55 216 151.713 223.163 151.713 232C151.713 240.837 144.55 248 135.713 248Z" fill="#C5E7F9"/>
<path d="M343.713 200C326.04 200 311.713 214.327 311.713 232C311.713 249.673 326.04 264 343.713 264C361.386 264 375.713 249.673 375.713 232C375.713 214.327 361.387 200 343.713 200ZM343.713 248C334.876 248 327.713 240.837 327.713 232C327.713 223.163 334.876 216 343.713 216C352.55 216 359.713 223.163 359.713 232C359.713 240.837 352.55 248 343.713 248Z" fill="#C5E7F9"/>
<path d="M319.713 288H159.713C155.295 288 151.713 291.582 151.713 296C151.713 344.601 191.112 384 239.713 384C288.314 384 327.713 344.601 327.713 296C327.713 291.582 324.132 288 319.713 288ZM247.713 304H263.713V320H247.713V304V304ZM215.713 304H231.713V320H215.713V304ZM231.766 367.612C198.294 363.894 171.871 337.471 168.154 304H199.714V328C199.714 332.418 203.296 336 207.714 336H271.714C276.132 336 279.714 332.418 279.714 328V304H311.274C306.884 343.521 271.287 372.002 231.766 367.612Z" fill="#C5E7F9"/>
</g>
<defs>
<clipPath id="clip0">
<rect width="479.427" height="479.427" fill="white"/>
</clipPath>
</defs>
</svg>
