<svg preserveAspectRatio="true" viewBox="0 0 512 512" fill="none" xmlns="http://www.w3.org/2000/svg">
<g clip-path="url(#clip0)">
<path d="M353.507 233.005C353.322 229.28 353.047 225.572 352.659 221.911C431.198 163.251 424.748 38.5148 346.036 6.83084C316.648 -4.99916 284.129 -0.594158 256.259 16.3558C166.122 -38.4712 70.7579 53.2618 114.574 162.122C124.383 186.49 139.988 207.073 159.858 221.912C159.47 225.577 159.195 229.285 159.011 233.006C151.178 235.656 145.517 243.062 145.517 251.778V299.547C145.517 310.481 154.412 319.374 165.344 319.374H172.221V327.632C172.221 337.78 179.92 347.459 193.284 347.459V356.34C185.711 357.311 184.271 367.751 191.346 370.698L193.284 371.506V392.819C185.711 393.79 184.271 404.23 191.346 407.177L193.284 407.985V429.299C185.709 430.271 184.271 440.709 191.346 443.656L193.284 444.464C193.284 453.714 192.664 456.371 195.716 459.168C255.634 514.093 252.204 511.989 256.257 511.989C260.147 511.989 258.941 512.203 289.226 484.442C292.064 485.624 292.995 486.152 294.822 486.152C301.1 486.152 304.611 478.861 300.671 473.951L316.614 459.338C325.727 462.236 330.478 448.899 321.768 445.271L319.231 444.213V423.192C327.204 422.814 329.111 411.851 321.768 408.793L319.231 407.735V386.713C327.204 386.336 329.111 375.373 321.768 372.314L319.231 371.256V347.458C332.509 347.458 340.295 337.851 340.295 327.631V319.373H347.174C358.108 319.373 367.001 310.478 367.001 299.546V251.777C367.001 243.061 361.339 235.655 353.507 233.005ZM256.257 494.316L209.029 451.025L273.965 478.083L256.257 494.316ZM286.153 466.912L208.284 434.464V414.235L301.326 453.004L286.153 466.912ZM304.232 401.487L292.488 396.594C288.666 394.998 284.273 396.808 282.68 400.632C281.086 404.454 282.894 408.846 286.717 410.439L304.23 417.737V437.965L208.284 397.986V377.757L264.741 401.283C268.557 402.875 272.953 401.074 274.549 397.245C276.143 393.422 274.334 389.03 270.511 387.437L208.285 361.506V347.46H223.125L304.232 381.258V401.487ZM262.119 347.459H304.231V365.008L262.119 347.459ZM325.295 327.631C325.295 330.293 323.129 332.459 320.467 332.459C319.087 332.459 194.032 332.459 192.049 332.459C189.387 332.459 187.221 330.293 187.221 327.631V319.373H325.295V327.631V327.631ZM352.001 299.546C352.001 302.208 349.835 304.374 347.173 304.374C340.191 304.374 179.918 304.374 165.344 304.374C162.682 304.374 160.516 302.208 160.516 299.546V251.777C160.516 249.114 162.682 246.948 165.344 246.948C166.613 246.948 293 246.948 293.782 246.948C297.925 246.948 301.282 243.59 301.282 239.448C301.282 235.306 297.925 231.948 293.782 231.948H174.078C174.329 227.709 174.724 223.5 175.259 219.366C175.619 216.585 174.399 213.836 172.094 212.239C132.705 184.936 113.605 134.362 120.455 91.0258C130.878 24.0698 195.62 -5.98916 252.111 31.4888C254.624 33.1558 257.889 33.1558 260.404 31.4898C284.247 15.6718 313.543 9.92184 340.435 20.7448C410.531 48.9608 411.218 163.161 340.421 212.24C338.116 213.838 336.896 216.588 337.257 219.369C337.792 223.495 338.188 227.704 338.439 231.949H318.783C314.64 231.949 311.283 235.307 311.283 239.449C311.283 243.591 314.64 246.949 318.783 246.949C318.784 246.949 347.173 246.949 347.174 246.949C349.836 246.949 352.002 249.115 352.002 251.778V299.546H352.001Z" fill="#C5E7F9"/>
</g>
<defs>
<clipPath id="clip0">
<rect width="512" height="512" fill="white"/>
</clipPath>
</defs>
</svg>
