<svg preserveAspectRatio="true" viewBox="0 0 512 512" fill="none" xmlns="http://www.w3.org/2000/svg">
<g clip-path="url(#clip0)">
<path d="M500.692 142.663L500.713 142.71C494.631 127.047 484.346 110.459 471.095 97.3513C468.306 94.3533 463.615 94.1483 460.573 96.9093C457.508 99.6903 457.277 104.43 460.058 107.497C460.965 108.496 464.686 111.935 469.337 117.847C518.367 179.758 499.349 287.279 427.245 337.272C424.942 338.868 423.723 341.615 424.083 344.395C434.799 427.13 399.268 494.353 387.026 494.366C386.027 494.366 384.092 490.864 382.907 486.225C378.468 469.073 383.905 441.065 373.15 412.26C354.255 358.134 280.012 357.989 261.106 412.38C250.618 442.285 255.667 469.324 251.391 486.242C249.322 494.134 247.272 494.366 247.272 494.366C235.306 494.353 199.419 427.752 210.218 344.395C210.578 341.617 209.359 338.868 207.055 337.272C153.797 300.345 126.535 228.734 141.739 166.407C144.194 156.399 146.651 150.433 148.995 144.697C150.506 141.275 150.809 139.465 155.001 139.284C155.49 139.304 155.971 139.279 156.439 139.207C176.978 138.097 196.244 126.778 207.053 108.488C235.537 121.599 261.603 104.761 267.492 82.7103C267.664 82.1093 267.81 81.3153 268.14 80.8793C269.139 80.7843 290.267 84.7873 313.004 99.8833C315.515 101.552 318.782 101.551 321.295 99.8843C361.805 72.9943 407.144 72.2463 440.856 92.7453C448.883 97.6053 458.277 85.4623 447.192 79.0763C409.235 56.9863 360.553 57.8103 317.15 84.7323C300.982 74.7063 282.847 68.1033 271.3 66.1393C261.792 64.5613 255.001 70.8233 253.387 77.4243C249.258 94.1423 230.625 103.484 214.385 95.3963C205.874 91.0423 197.817 94.2873 194.794 99.7323C194.472 100.311 194.139 100.881 193.794 101.445H193.795C193.629 101.716 193.48 101.999 193.35 102.289C192.48 103.29 180.733 123.309 154.837 124.272C146.869 124.617 139.903 128.228 136.787 135.302C132.566 144.378 129.407 153.655 127.106 163.139C111.203 228.098 137.742 304.987 194.812 346.945C185.927 426.703 218.221 509.326 247.26 509.353C271.792 509.353 267.6 463.838 269.362 445.826C271.595 422.034 279.491 395.785 302.439 389.104V389.102C330.419 381.102 351.633 394.792 359.845 419.708L359.844 419.709C369.61 450.25 362.326 471.262 369.208 492.825C373.778 507.202 382.327 509.353 387.025 509.353C415.862 509.353 448.436 427.285 439.488 346.945C504.197 299.376 528.375 207.313 500.692 142.663Z" fill="#C5E7F9"/>
<path d="M149.487 35.0371C149.487 30.8961 146.131 27.5411 141.991 27.5411H113.385V25.0771C113.385 12.7051 103.321 2.64111 90.9509 2.64111H55.0429C42.6729 2.64111 32.6089 12.7051 32.6089 25.0771V27.5411H20.0529C9.98988 27.5411 0.0528846 35.1161 0.0528846 50.1741C0.0528846 92.9391 -0.391115 91.2861 1.29388 93.8391L33.8859 143.176H25.6529C14.1859 143.176 4.85588 152.505 4.85588 163.973C4.85588 164.902 4.85588 331.84 4.85588 334.666C4.85588 343.488 10.3879 351.025 18.1569 354.042V488.561C18.1569 500.028 27.4859 509.358 38.9539 509.358H56.6869C68.1539 509.358 77.4839 500.029 77.4839 488.561V410.658C77.4839 406.517 74.1279 403.162 69.9889 403.162C65.8489 403.162 62.4929 406.517 62.4929 410.658V488.561C62.4929 491.762 59.8889 494.367 56.6869 494.367H38.9539C35.7529 494.367 33.1479 491.764 33.1479 488.561V355.461H62.4919V386.67C62.4919 390.811 65.8479 394.166 69.9879 394.166C74.1279 394.166 77.4839 390.811 77.4839 386.67V354.04C85.2529 351.023 90.7849 343.485 90.7849 334.664V228.766C90.7849 224.625 87.4289 221.27 83.2889 221.27C79.1489 221.27 75.7929 224.625 75.7929 228.766V307.588H19.8479V191.047H75.7939V203.447C75.7939 207.588 79.1499 210.943 83.2889 210.943C87.4279 210.943 90.7849 207.588 90.7849 203.447V163.972C90.7849 152.505 81.4559 143.175 69.9879 143.175H51.8529L15.0439 87.4551V50.1741C15.0439 43.7871 17.6509 42.6921 20.2539 42.5331H32.6099V44.9971C32.6099 57.3681 42.6739 67.4311 55.0439 67.4311H90.9529C103.323 67.4311 113.387 57.3681 113.387 44.9971V42.5331H141.993C146.131 42.5331 149.487 39.1781 149.487 35.0371ZM75.7929 322.579V334.666C75.7929 337.867 73.1899 340.472 69.9869 340.472H25.6529C22.4519 340.472 19.8469 337.869 19.8469 334.666V322.579H75.7929ZM49.8339 158.167C52.8029 158.167 58.7579 158.167 69.9889 158.167C73.1899 158.167 75.7939 160.77 75.7939 163.973V176.058H19.8479V163.973C19.8479 160.772 22.4519 158.167 25.6539 158.167C37.7919 158.167 44.1209 158.167 47.2119 158.167C49.1199 158.167 49.7989 158.167 49.8339 158.167ZM98.3939 44.9961C98.3939 49.1001 95.0549 52.4391 90.9509 52.4391H55.0429C50.9389 52.4391 47.5999 49.1001 47.5999 44.9961V25.0781C47.5999 20.9731 50.9389 17.6331 55.0429 17.6331H90.9519C95.0559 17.6331 98.3949 20.9731 98.3949 25.0781V44.9961H98.3939Z" fill="#C5E7F9"/>
</g>
<defs>
<clipPath id="clip0">
<rect width="512" height="512" fill="white"/>
</clipPath>
</defs>
</svg>
