<svg preserveAspectRatio="none" viewBox="0 0 23 22" fill="none" xmlns="http://www.w3.org/2000/svg">
<path d="M20.2747 16.9723L16.164 14.0025C15.6424 13.6286 14.9431 13.7516 14.5575 14.2851L13.3601 15.953C13.2062 16.1728 12.9264 16.2366 12.7038 16.1026L12.4761 15.9666C11.721 15.5207 10.7815 14.9656 8.88861 12.9143C6.99572 10.863 6.48231 9.84441 6.07075 9.02794L5.94585 8.78119C5.82049 8.54007 5.87823 8.23575 6.08122 8.06771L7.61974 6.77093C8.11201 6.35309 8.22572 5.59578 7.88103 5.03048L5.13967 0.577286C4.78641 0.00163523 4.07767 -0.171172 3.53079 0.184969L1.81185 1.30357C1.27174 1.64755 0.875493 2.20464 0.70618 2.85811C0.0871937 5.30138 0.552851 9.51809 6.2867 15.7304C10.8479 20.6712 14.2434 21.9999 16.5773 21.9999C17.1144 22.0024 17.6495 21.9267 18.168 21.7748C18.7713 21.5916 19.2856 21.1623 19.6029 20.5771L20.6365 18.716C20.9658 18.1234 20.8063 17.3552 20.2747 16.9723ZM20.0534 18.3398L19.0222 20.202C18.7943 20.6244 18.4244 20.935 17.9899 21.0687C15.9078 21.688 12.2703 21.175 6.76556 15.2117C1.26084 9.24827 0.787406 5.308 1.35904 3.05209C1.48262 2.58085 1.76969 2.1796 2.16011 1.93237L3.87905 0.815229C4.11634 0.660553 4.42395 0.735528 4.57724 0.985329L6.06638 3.40733L7.31626 5.43814C7.46594 5.68334 7.41676 6.01198 7.20322 6.19343L5.66434 7.49021C5.19603 7.87814 5.06229 8.58007 5.35062 9.13716L5.47282 9.37768C5.90536 10.2371 6.44312 11.3062 8.40641 13.4327C10.3697 15.5592 11.3563 16.1418 12.1492 16.6104L12.3715 16.7431C12.8857 17.0554 13.5337 16.9106 13.8918 16.4032L15.0889 14.7361C15.2564 14.5049 15.5596 14.4517 15.7861 14.6137L19.8964 17.5834C20.1271 17.7494 20.1964 18.0828 20.0534 18.3398Z" fill="#031B4E"/>
<path d="M14.5635 4.47896C18.4454 4.48363 21.5912 7.89159 21.5955 12.0969C21.5955 12.3444 21.7807 12.545 22.0092 12.545C22.2376 12.545 22.4228 12.3444 22.4228 12.0969C22.418 7.39681 18.9021 3.58791 14.5635 3.58276C14.3351 3.58276 14.1499 3.78336 14.1499 4.03086C14.1499 4.27836 14.3351 4.47896 14.5635 4.47896Z" fill="#031B4E"/>
<path d="M14.5635 7.16743C17.0753 7.17064 19.1107 9.37567 19.1136 12.0967C19.1136 12.3442 19.2989 12.5448 19.5273 12.5448C19.7557 12.5448 19.9409 12.3442 19.9409 12.0967C19.9375 8.88089 17.5319 6.27492 14.5635 6.27124C14.3351 6.27124 14.1499 6.47184 14.1499 6.71934C14.1499 6.96683 14.3351 7.16743 14.5635 7.16743Z" fill="#031B4E"/>
<path d="M14.5635 9.85628C15.7052 9.85775 16.6304 10.86 16.6318 12.0969C16.6318 12.3444 16.817 12.545 17.0454 12.545C17.2738 12.545 17.459 12.3444 17.459 12.0969C17.4572 10.3653 16.1619 8.96203 14.5635 8.96008C14.3351 8.96008 14.1499 9.16068 14.1499 9.40818C14.1499 9.65568 14.3351 9.85628 14.5635 9.85628Z" fill="#031B4E"/>
</svg>
