<svg preserveAspectRatio="none" viewBox="0 0 43 42" fill="none" xmlns="http://www.w3.org/2000/svg">
<g clip-path="url(#clip0)">
<path d="M38.25 0.279297H5.25C4.05653 0.279297 2.91193 0.747098 2.06802 1.57979C1.22411 2.41248 0.75 3.54185 0.75 4.71946L0.75 37.2806C0.75 38.4582 1.22411 39.5876 2.06802 40.4203C2.91193 41.253 4.05653 41.7208 5.25 41.7208H18.1172V27.6316H12.2109V21H18.1172V15.9457C18.1172 10.1966 21.5859 7.02094 26.8988 7.02094C29.4431 7.02094 32.1038 7.46866 32.1038 7.46866V13.1114H29.1722C26.2838 13.1114 25.3828 14.88 25.3828 16.694V21H31.8309L30.7997 27.6316H25.3828V41.7208H38.25C39.4435 41.7208 40.5881 41.253 41.432 40.4203C42.2759 39.5876 42.75 38.4582 42.75 37.2806V4.71946C42.75 3.54185 42.2759 2.41248 41.432 1.57979C40.5881 0.747098 39.4435 0.279297 38.25 0.279297Z" fill="#006AFF"/>
</g>
<defs>
<clipPath id="clip0">
<rect x="0.75" width="42" height="42" rx="4" fill="white"/>
</clipPath>
</defs>
</svg>
