<svg preserveAspectRatio="none" width="1736" height="1764" viewBox="0 0 1736 1764" fill="none" xmlns="http://www.w3.org/2000/svg">
<g id="logoP 1">
<g id="Group">
<path id="path878-2" d="M928.845 663.464C791.294 545.568 650.7 515.933 529.296 658.008C439.436 780.107 433.696 961.862 628.958 1088.85C639.611 1095.78 673.714 1112.38 681.873 1116.97C545.995 1207.72 548.678 1459.82 628.15 1644.96C633.749 1656.78 645.783 1685.85 674.983 1711.27C677.17 1713.17 727.668 1765.52 758.96 1690.07C810.288 1557.32 778.75 1584.33 833.58 1389.45C868.211 1262.2 876.94 1254.52 938.177 1182.29C967.626 1153.04 984.376 1148.16 994.902 1157.85C1004.04 1166.26 1008.48 1185.65 1012.47 1209.61C1028.31 1331.9 993.945 1394.6 1012.42 1612.78C1018.48 1685.51 1058.05 1723.3 1104.35 1658.72C1184.7 1530.22 1196.8 1468.57 1224.79 1317.86C1263.41 1109.96 1237.94 1131.68 1218.38 959.494C1313.29 892.71 1353.33 722.412 1284.68 627.382C1254.95 584.647 1223.99 557.967 1166.68 544.643C1152.98 541.362 1122.86 541.505 1104.48 545.265C1026.14 562.67 981.782 611.421 928.844 663.464H928.845Z" stroke="#397DFF" stroke-width="66.2503" stroke-linejoin="round"/>
<path id="path895-6" d="M1719.98 721.309L1469.33 589.78C1427.02 565.982 1394.3 512.765 1436.5 418.899C1462.27 361.575 1506.2 320.814 1578.63 354.716L1715.54 410.636" stroke="#397DFF" stroke-width="66.2503"/>
<path id="path962-3" d="M892.105 1021.96C889.502 1021.62 890.506 1023.1 891.426 1025.25C969.145 1088.99 971.677 1160.57 976.082 1192.06L1037.94 1171.8C1033.21 1137.98 978.045 1083.92 892.105 1021.96V1021.96Z" fill="#397DFF"/>
<path id="path958-3" d="M926.39 620.362C885.518 661.518 813.926 728.689 747.437 741.335C746.718 742.773 747.142 742.915 748.419 744.153C815.493 731.397 866.64 734.893 947.479 691.015L926.39 620.362Z" fill="#397DFF"/>
<path id="path909-1" d="M1460.7 370.33L1087.55 167.757L837.065 241.334" stroke="#397DFF" stroke-width="66.2503"/>
<path id="path911-5" d="M1419.61 480.188L1064.39 278.322C1036.42 288.779 870.542 336.435 870.542 336.435" stroke="#397DFF" stroke-width="66.2503"/>
<path id="path913-7" d="M469.683 867.511C384.233 868.949 300.29 845.527 228.623 800.249C156.957 754.971 100.837 689.903 67.4635 613.393C34.0899 536.884 24.985 452.422 41.317 370.845C57.6491 289.269 98.6731 214.298 159.126 155.552C219.578 96.8057 296.702 56.9639 380.601 41.1383C464.501 25.3126 551.349 34.225 630.003 66.7318C708.658 99.2387 775.531 153.857 822.042 223.58C868.554 293.303 892.582 374.949 891.044 458.044" stroke="#397DFF" stroke-width="66.2503"/>
</g>
</g>
</svg>
