<svg preserveAspectRatio="none" viewBox="0 0 25 20" fill="none" xmlns="http://www.w3.org/2000/svg">
<path d="M15.8401 5.67173C15.84 5.20183 15.6626 4.7425 15.3303 4.35183C14.998 3.96116 14.5257 3.65668 13.9731 3.47691C13.4206 3.29713 12.8126 3.25012 12.2261 3.34184C11.6395 3.43355 11.1007 3.65985 10.6779 3.99214C10.255 4.32443 9.96708 4.74778 9.85043 5.20865C9.73379 5.66952 9.7937 6.14722 10.0226 6.58134C10.2515 7.01546 10.639 7.38651 11.1363 7.64756C11.6336 7.90861 12.2182 8.04795 12.8162 8.04795C13.618 8.04718 14.3866 7.79658 14.9535 7.3511C15.5204 6.90563 15.8392 6.30167 15.8401 5.67173ZM10.5086 5.67173C10.5087 5.31313 10.6441 4.96261 10.8977 4.66448C11.1513 4.36635 11.5117 4.134 11.9334 3.99681C12.3551 3.85963 12.8191 3.82377 13.2667 3.89377C13.7143 3.96376 14.1254 4.13648 14.4481 4.39006C14.7708 4.64365 14.9906 4.96673 15.0796 5.31844C15.1686 5.67015 15.1229 6.03469 14.9482 6.36599C14.7735 6.69728 14.4777 6.98044 14.0983 7.17966C13.7188 7.37887 13.2726 7.48521 12.8162 7.48521C12.2044 7.48465 11.6177 7.2934 11.1851 6.95342C10.7525 6.61344 10.5092 6.15249 10.5086 5.67173Z" fill="#006AFF"/>
<path d="M24.9569 19.185L22.0376 13.1717C22.0117 13.1184 21.9659 13.0726 21.9062 13.0403C21.8464 13.008 21.7756 12.9907 21.7031 12.9906H16.1779C16.2117 12.9474 16.2453 12.9054 16.279 12.862C18.405 10.0965 19.4748 7.67737 19.4595 5.67272C19.4598 4.28837 18.7601 2.96063 17.5145 1.98158C16.2689 1.00254 14.5792 0.452383 12.8173 0.452149C11.0554 0.451914 9.3656 1.00162 8.11954 1.98033C6.87348 2.95905 6.17328 4.2866 6.17298 5.67095C6.15763 7.67737 7.22746 10.0968 9.3534 12.862C9.38717 12.9059 9.42073 12.9479 9.45449 12.9906H3.92938C3.85684 12.9907 3.78602 13.008 3.72628 13.0403C3.66654 13.0726 3.62069 13.1184 3.5948 13.1717L0.675901 19.185C0.655103 19.2276 0.64782 19.2735 0.654681 19.3188C0.661543 19.3642 0.682342 19.4075 0.715283 19.4451C0.748223 19.4826 0.792314 19.5133 0.843746 19.5345C0.895177 19.5557 0.952403 19.5668 1.01048 19.5667H24.6224C24.6804 19.5668 24.7377 19.5557 24.7891 19.5345C24.8405 19.5133 24.8846 19.4826 24.9176 19.4451C24.9505 19.4075 24.9713 19.3642 24.9782 19.3188C24.985 19.2735 24.9777 19.2276 24.9569 19.185ZM6.88941 5.67143C6.88954 5.05987 7.04298 4.45432 7.34097 3.88936C7.63895 3.32439 8.07564 2.81107 8.62611 2.37871C9.17658 1.94635 9.83005 1.60341 10.5492 1.36947C11.2683 1.13554 12.0391 1.01519 12.8174 1.01529C13.5958 1.0154 14.3665 1.13596 15.0855 1.37009C15.8046 1.60422 16.4579 1.94734 17.0082 2.37985C17.5585 2.81236 17.9949 3.3258 18.2927 3.89084C18.5904 4.45589 18.7436 5.06148 18.7434 5.67304C18.7741 9.6698 14.0184 14.5993 12.8164 15.7814C11.6144 14.5998 6.85851 9.67157 6.88941 5.67143ZM12.5436 16.4084C12.5773 16.4395 12.6191 16.4644 12.6662 16.4815C12.7133 16.4986 12.7645 16.5075 12.8164 16.5075C12.8683 16.5075 12.9196 16.4986 12.9667 16.4815C13.0138 16.4644 13.0556 16.4395 13.0892 16.4084C14.04 15.4984 14.9215 14.5449 15.729 13.5531H21.4561L21.9144 14.4977L10.7228 17.6251L6.73368 13.5526H9.90346C10.7111 14.5446 11.5927 15.4982 12.5436 16.4084ZM10.7103 18.2253H10.7124L17.389 16.3602L19.9786 19.0039H7.92567L10.7103 18.2253ZM4.17637 13.5526H5.82981L10.0129 17.8233L5.78868 19.0038H1.53025L4.17637 13.5526ZM20.8833 19.0039L18.0984 16.161L22.1706 15.0231L24.103 19.0039H20.8833Z" fill="#006AFF"/>
</svg>
