<svg preserveAspectRatio="none" viewBox="0 0 17 14" fill="none" xmlns="http://www.w3.org/2000/svg">
<g clip-path="url(#clip0)">
<path d="M12.5357 8.14276H11.9643C11.8808 8.14276 11.8123 8.1695 11.759 8.22323C11.7053 8.27664 11.6786 8.3451 11.6786 8.42847V11.2856C11.6786 11.6785 11.5388 12.0147 11.259 12.2945C10.9793 12.5742 10.6429 12.714 10.25 12.714H2.82137C2.42852 12.714 2.09218 12.5742 1.81238 12.2945C1.53265 12.0147 1.3928 11.6785 1.3928 11.2856V3.85701C1.3928 3.46417 1.53262 3.12795 1.81238 2.84819C2.09218 2.56839 2.42852 2.42857 2.82137 2.42857H9.10703C9.19049 2.42857 9.25898 2.4017 9.31249 2.3482C9.366 2.29463 9.39273 2.22623 9.39273 2.14283V1.57132C9.39273 1.48807 9.366 1.41955 9.31249 1.36608C9.25898 1.3125 9.19049 1.28577 9.10703 1.28577H2.82137C2.1131 1.28577 1.50741 1.53726 1.00436 2.04022C0.501489 2.54315 0.249992 3.14884 0.249992 3.85711V11.2857C0.249992 11.9939 0.501489 12.5997 1.00439 13.1025C1.50744 13.6055 2.11313 13.8571 2.8214 13.8571H10.25C10.9583 13.8571 11.564 13.6055 12.067 13.1025C12.5701 12.5997 12.8216 11.994 12.8216 11.2857V8.42869C12.8216 8.34522 12.7948 8.27673 12.7411 8.22323C12.6875 8.1695 12.619 8.14276 12.5357 8.14276Z" fill="#006AFF"/>
<path d="M16.0803 0.312568C15.9671 0.199454 15.8331 0.142944 15.6784 0.142944H11.107C10.9523 0.142944 10.8183 0.199454 10.7052 0.312568C10.5921 0.425619 10.5355 0.55956 10.5355 0.714329C10.5355 0.869098 10.5921 1.00307 10.7052 1.11618L12.2766 2.68758L6.45527 8.50904C6.39567 8.56855 6.36596 8.63704 6.36596 8.71428C6.36596 8.79181 6.39576 8.86026 6.45527 8.91978L7.47314 9.93752C7.53265 9.99703 7.60114 10.0267 7.67851 10.0267C7.75588 10.0267 7.8244 9.99706 7.88388 9.93752L13.7052 4.11615L15.2767 5.68755C15.3898 5.80066 15.5237 5.85723 15.6785 5.85723C15.8333 5.85723 15.9672 5.80066 16.0804 5.68755C16.1935 5.57446 16.25 5.44055 16.25 5.28578V0.714329C16.25 0.559466 16.1933 0.425619 16.0803 0.312568Z" fill="#006AFF"/>
</g>
<defs>
<clipPath id="clip0">
<rect width="16" height="14" fill="white" transform="translate(0.249992)"/>
</clipPath>
</defs>
</svg>
