<svg preserveAspectRatio="none" viewBox="0 0 43 42" fill="none" xmlns="http://www.w3.org/2000/svg">
<g clip-path="url(#clip0)">
<path d="M21.9665 9.94214C16.0046 9.94214 11.1751 14.7383 11.1751 20.667C11.1751 22.9984 11.9411 25.1967 13.2401 26.962L11.8745 30.9588L16.0379 29.6265C17.7365 30.7589 19.8015 31.3918 21.9998 31.3918C27.9617 31.3918 32.8245 26.5956 32.8245 20.667C32.7912 14.7383 27.9284 9.94214 21.9665 9.94214ZM28.2948 25.0968C28.0283 25.8295 26.7294 26.529 26.1632 26.5956C25.5969 26.6622 25.5969 27.0619 22.3662 25.8295C19.1687 24.5639 17.137 21.3331 16.9705 21.0999C16.8039 20.9001 15.6715 19.4013 15.6715 17.8692C15.6715 16.3371 16.4709 15.571 16.7706 15.2712C17.0704 14.9715 17.4034 14.8716 17.6033 14.8716C17.8031 14.8716 18.0363 14.9049 18.2028 14.9049C18.4027 14.9049 18.6358 14.8049 18.9023 15.4378C19.1687 16.0706 19.8015 17.6027 19.8682 17.7693C19.9348 17.9358 20.0014 18.1023 19.9015 18.3022C19.8015 18.502 19.7349 18.6352 19.6017 18.8351C19.4352 19.0016 19.2686 19.2348 19.1354 19.368C18.9689 19.5345 18.8023 19.7011 19.0022 20.0008C19.202 20.3006 19.8349 21.3331 20.7674 22.1658C21.9665 23.2316 22.999 23.5647 23.2988 23.7312C23.5985 23.8977 23.7984 23.8644 23.9649 23.6646C24.1647 23.4647 24.7643 22.7653 24.9641 22.4322C25.164 22.1325 25.3971 22.1658 25.6636 22.2657C25.9633 22.3656 27.4954 23.1317 27.8285 23.2982C28.1283 23.4647 28.3614 23.5314 28.428 23.6646C28.528 23.7312 28.528 24.364 28.2948 25.0968Z" fill="#1BD741"/>
<path d="M32.1917 0.0178223H11.275C5.47958 0.0178223 0.75 4.7474 0.75 10.5428V31.4928C0.75 37.2549 5.47958 41.9845 11.275 41.9845H32.225C38.0204 41.9845 42.75 37.2549 42.75 31.4595V10.5428C42.7167 4.7474 37.9871 0.0178223 32.1917 0.0178223ZM21.9665 33.4246C19.7016 33.4246 17.6033 32.8584 15.7381 31.8259L8.61043 34.0908L10.9419 27.2629C9.77617 25.3311 9.11003 23.0662 9.11003 20.6681C9.11003 13.607 14.8721 7.91156 21.9665 7.91156C29.0609 7.91156 34.823 13.607 34.823 20.6681C34.823 27.7292 29.0609 33.4246 21.9665 33.4246Z" fill="#1BD741"/>
</g>
<defs>
<clipPath id="clip0">
<rect width="42" height="42" fill="white" transform="translate(0.75)"/>
</clipPath>
</defs>
</svg>
