<svg preserveAspectRatio="none" viewBox="0 0 193 193" fill="none" xmlns="http://www.w3.org/2000/svg">
<g opacity="0.4" clip-path="url(#clip0)">
<path d="M99.8206 6.64196C84.9112 6.64196 70.2132 10.2341 57.0408 17.0609L41.6389 1.6582C40.2767 0.295253 38.314 -0.280726 36.4313 0.129178C34.5486 0.539081 33.0033 1.87863 32.3303 3.68432L24.5527 24.5528L3.68466 32.33C1.87897 33.003 0.53942 34.5482 0.129517 36.4309C-0.280009 38.3136 0.295592 40.2759 1.65854 41.6385L17.0609 57.0412C10.2341 70.2132 6.64193 84.9113 6.64193 99.8207C6.64193 151.2 48.4415 193 99.8206 193C151.2 193 193 151.2 193 99.8207C193 48.4416 151.2 6.64196 99.8206 6.64196V6.64196ZM99.8206 130.487C116.73 130.487 130.488 116.73 130.488 99.8207C130.488 82.9108 116.73 69.1541 99.8206 69.1541C93.4071 69.1541 87.4499 71.1365 82.5224 74.5157L68.2864 60.2797C76.9415 53.3634 87.9059 49.221 99.8206 49.221C127.721 49.221 150.42 71.92 150.42 99.8207C150.42 127.721 127.721 150.42 99.8206 150.42C71.92 150.42 49.2213 127.721 49.2213 99.8207C49.2213 87.9059 53.3634 76.9415 60.2797 68.2864L74.5157 82.5224C71.1364 87.4499 69.1541 93.4071 69.1541 99.8207C69.1541 116.73 82.9112 130.487 99.8206 130.487V130.487ZM103.824 95.8171L90.7495 82.7425C93.4569 81.2987 96.5444 80.4771 99.8206 80.4771C110.487 80.4771 119.164 89.1545 119.164 99.8203C119.164 110.486 110.487 119.164 99.8206 119.164C89.1548 119.164 80.4774 110.486 80.4774 99.8203C80.4774 96.5437 81.2991 93.457 82.7428 90.7492L95.8175 103.824C96.923 104.929 98.372 105.482 99.8206 105.482C101.27 105.482 102.719 104.929 103.824 103.824C106.035 101.613 106.035 98.0282 103.824 95.8171V95.8171ZM39.8634 15.8961L58.9152 34.9483L56.466 48.4589L35.5299 27.5233L39.8634 15.8961ZM15.8965 39.863L27.5236 35.53L48.4596 56.4656L34.9487 58.9152L15.8965 39.863ZM99.8206 181.676C54.6856 181.676 17.9652 144.956 17.9652 99.8207C17.9652 87.9391 20.5628 76.2127 25.522 65.502L29.0379 69.0179C30.1091 70.0894 31.5532 70.6764 33.0411 70.6764C33.3766 70.6764 33.7144 70.6465 34.0511 70.5858L46.5275 68.3241C41.0493 77.5583 37.8984 88.3275 37.8984 99.8207C37.8984 133.965 65.6767 161.744 99.821 161.744C133.965 161.744 161.744 133.965 161.744 99.8207C161.744 65.6764 133.965 37.8977 99.821 37.8977C88.3279 37.8977 77.5586 41.0489 68.3245 46.5272L70.5861 34.0508C70.9171 32.2239 70.3313 30.3503 69.0186 29.0376L65.5027 25.5217C76.213 20.5624 87.9395 17.9649 99.8214 17.9649C144.957 17.9649 181.677 54.6852 181.677 99.8203C181.677 144.956 144.956 181.676 99.8206 181.676V181.676Z" fill="#00A687"/>
</g>
<defs>
<clipPath id="clip0">
<rect width="193" height="193" fill="white"/>
</clipPath>
</defs>
</svg>
