<svg preserveAspectRatio="none" viewBox="0 0 310 222" fill="none" xmlns="http://www.w3.org/2000/svg">
<g opacity="0.6">
<path d="M255.312 85.6477C267.653 77.2292 275.784 62.9666 275.784 46.8205C275.784 21.0044 255.003 0.00122322 229.461 0.00122322C203.918 0.00122322 183.137 21.0044 183.137 46.8205C183.137 62.9593 191.26 77.2164 203.593 85.6367C194.609 88.7105 186.197 93.3913 178.73 99.5285C172.411 93.3864 163.931 89.8488 155.001 89.8488C146.071 89.8488 137.591 93.3876 131.276 99.5285C123.806 93.3913 115.393 88.7105 106.408 85.6361C118.74 77.2158 126.864 62.9587 126.864 46.8193C126.864 21.0032 106.083 0 80.5401 0C55.0002 0 34.2223 21.0032 34.2223 46.8193C34.2223 62.9654 42.3519 77.2274 54.6914 85.6465C22.9721 96.5398 0.0768945 126.907 0.00847656 162.588C0.00666016 162.642 0 162.693 0 162.747C0 172.179 5.30269 186.099 30.5665 198.852C48.5683 207.939 73.3065 214.77 102.107 218.606C119.001 220.858 136.797 222 155.001 222C173.208 222 191.006 220.858 207.899 218.606C236.698 214.77 261.434 207.939 279.435 198.852C304.697 186.098 310 172.179 310 162.747C310 126.998 287.08 96.5575 255.312 85.6477ZM195.294 46.8205C195.294 27.7792 210.621 12.2885 229.461 12.2885C248.3 12.2885 263.627 27.7798 263.627 46.8205C263.627 65.8587 248.3 81.3464 229.461 81.3464C210.621 81.3464 195.294 65.8587 195.294 46.8205ZM136.864 111.734C140.994 105.724 147.773 102.136 155 102.136C162.231 102.136 169.012 105.724 173.142 111.734C173.142 111.736 173.143 111.737 173.144 111.738C175.721 115.482 177.082 119.879 177.082 124.455C177.082 136.762 167.176 146.774 154.999 146.774C142.826 146.774 132.923 136.761 132.923 124.454C132.923 119.872 134.283 115.476 136.864 111.734ZM46.3783 46.8205C46.3783 27.7792 61.7027 12.2885 80.5388 12.2885C99.3786 12.2885 114.705 27.7798 114.705 46.8205C114.705 65.8587 99.378 81.3464 80.5388 81.3464C61.7027 81.3464 46.3783 65.8587 46.3783 46.8205ZM96.826 205.437C72.3136 201.664 51.3886 195.629 35.9994 187.86C20.6689 180.122 12.2093 171.232 12.1602 162.821C12.1602 162.796 12.1639 162.772 12.1639 162.748C12.1633 124.638 42.8369 93.6336 80.5395 93.6336C96.5795 93.6336 111.883 99.2341 124.129 109.492C121.921 114.13 120.767 119.215 120.767 124.455C120.767 135.15 125.593 144.727 133.158 151.08C111.911 159.811 96.8811 180.879 96.826 205.437ZM201.026 207.081C186.241 208.825 170.788 209.714 155 209.714C139.215 209.714 123.765 208.825 108.98 207.081V205.573C108.98 179.926 129.624 159.061 155 159.061C180.379 159.061 201.026 179.926 201.026 205.573V207.081ZM274.002 187.86C258.614 195.629 237.692 201.664 213.182 205.436C213.127 180.878 198.095 159.811 176.847 151.079C184.414 144.726 189.241 135.15 189.241 124.454C189.241 119.22 188.087 114.134 185.876 109.492C198.117 99.2329 213.419 93.6324 229.462 93.6324C267.167 93.633 297.843 124.638 297.843 162.747C297.843 171.18 289.377 180.099 274.002 187.86Z" fill="#FAFAFA"/>
</g>
</svg>
