<svg preserveAspectRatio="none" viewBox="0 0 217 193" fill="none" xmlns="http://www.w3.org/2000/svg">
<g opacity="0.4" clip-path="url(#clip0)">
<path d="M215.416 92.3128C214.929 91.7604 203.268 78.6348 184.382 65.3937C134.094 30.1342 84.9238 28.7196 32.618 65.3937C13.733 78.6348 2.07142 91.7604 1.58444 92.3128C-0.527495 94.7071 -0.527495 98.2928 1.58444 100.687C2.07142 101.239 13.733 114.365 32.6184 127.606C82.9064 162.866 132.077 164.28 184.383 127.606C203.268 114.365 214.929 101.239 215.417 100.687C217.528 98.2928 217.528 94.7071 215.416 92.3128ZM154.675 96.4999C154.675 121.754 133.791 142.001 108.501 142.001C83.1679 142.001 62.3262 121.712 62.3262 96.4999C62.3262 71.2461 83.2099 50.9989 108.501 50.9989C133.833 50.9989 154.675 71.2884 154.675 96.4999ZM15.1503 96.4999C27.7007 83.9931 43.4044 72.0939 59.8324 63.7788C46.3301 83.3185 46.0686 109.303 59.8324 129.221C43.3222 120.865 27.6257 108.931 15.1503 96.4999V96.4999ZM157.168 129.221C170.67 109.681 170.932 83.6972 157.168 63.7788C173.678 72.1353 189.374 84.0691 201.85 96.4999C189.326 108.979 173.629 120.889 157.168 129.221Z" fill="#00A687"/>
<path d="M114.857 90.1603H118.582L108.5 100.214L100.27 92.0064C97.7894 89.5322 93.761 89.5306 91.279 92.0064L78.6731 104.578C76.1903 107.053 76.1903 111.067 78.6731 113.543C81.1555 116.019 85.181 116.019 87.6638 113.543L95.7746 105.455L104.005 113.662C106.488 116.138 110.513 116.138 112.996 113.662L127.572 99.1259V100.726C127.572 104.228 130.419 107.066 133.93 107.066C137.441 107.066 140.287 104.228 140.287 100.726V83.8206C140.287 80.3194 137.441 77.481 133.93 77.481H114.857C111.346 77.481 108.5 80.3194 108.5 83.8206C108.5 87.3218 111.346 90.1603 114.857 90.1603V90.1603Z" fill="#00A687"/>
<path d="M108.5 26.341C112.011 26.341 114.857 23.5025 114.857 20.0013V7.32197C114.857 3.82078 112.011 0.9823 108.5 0.9823C104.989 0.9823 102.143 3.82078 102.143 7.32197V20.0013C102.143 23.5025 104.989 26.341 108.5 26.341Z" fill="#00A687"/>
<path d="M150.035 37.4391C153.063 39.1825 156.956 38.1648 158.72 35.1188L165.077 24.1385C166.833 21.1064 165.791 17.2287 162.75 15.4785C159.71 13.7271 155.821 14.7659 154.066 17.7988L147.709 28.7791C145.953 31.8112 146.994 35.6885 150.035 37.4391Z" fill="#00A687"/>
<path d="M108.5 166.236C104.989 166.236 102.143 169.075 102.143 172.576V185.678C102.143 189.179 104.989 192.018 108.5 192.018C112.011 192.018 114.857 189.179 114.857 185.678V172.576C114.857 169.075 112.011 166.236 108.5 166.236Z" fill="#00A687"/>
<path d="M158.508 157.515C156.752 154.483 152.864 153.443 149.823 155.195C146.782 156.945 145.741 160.822 147.497 163.855L154.066 175.201C155.827 178.243 159.719 179.268 162.75 177.522C165.791 175.771 166.833 171.894 165.077 168.862L158.508 157.515Z" fill="#00A687"/>
<path d="M58.2808 35.1189C60.0418 38.1606 63.9334 39.1851 66.965 37.4392C70.006 35.6886 71.0477 31.8112 69.2918 28.7792L62.9344 17.7989C61.1785 14.766 57.2907 13.7276 54.2502 15.4786C51.2092 17.2292 50.1674 21.1065 51.9234 24.1386L58.2808 35.1189Z" fill="#00A687"/>
<path d="M67.1769 155.195C64.1364 153.443 60.2478 154.483 58.4927 157.515L51.9234 168.862C50.1674 171.894 51.2092 175.772 54.2502 177.522C57.2789 179.266 61.1717 178.246 62.9344 175.201L69.5037 163.855C71.2597 160.823 70.2179 156.945 67.1769 155.195V155.195Z" fill="#00A687"/>
</g>
<defs>
<clipPath id="clip0">
<rect width="217" height="193" fill="white"/>
</clipPath>
</defs>
</svg>
