<svg preserveAspectRatio="none" viewBox="0 0 47 53" fill="none" xmlns="http://www.w3.org/2000/svg">
<g clip-path="url(#clip0)">
<path d="M21.4151 12.5314C22.0629 12.8559 22.7765 13.0248 23.4998 13.0248C24.2231 13.0248 24.9367 12.8559 25.5845 12.5314C25.7866 12.4295 25.9403 12.2508 26.0117 12.0346C26.0832 11.8184 26.0665 11.5824 25.9655 11.3786C25.8644 11.1747 25.6873 11.0197 25.4729 10.9477C25.2586 10.8756 25.0246 10.8924 24.8225 10.9943C24.4115 11.2004 23.9588 11.3077 23.4998 11.3077C23.0408 11.3077 22.5881 11.2004 22.1771 10.9943C21.975 10.8924 21.741 10.8756 21.5267 10.9477C21.3124 11.0197 21.1352 11.1747 21.0341 11.3786C20.9331 11.5824 20.9164 11.8184 20.9879 12.0346C21.0593 12.2508 21.213 12.4295 21.4151 12.5314Z" fill="#006AFF"/>
<path d="M45.6482 22.4784H43.0926V13.8865C43.0926 13.6586 43.0028 13.4401 42.8431 13.2789C42.6833 13.1178 42.4667 13.0273 42.2407 13.0273H33.3082C33.4071 12.5294 33.4574 12.023 33.4584 11.5153C33.4584 11.4465 33.4444 11.3779 33.4426 11.3089H34.5741C34.8 11.3089 35.0167 11.2184 35.1764 11.0572C35.3362 10.8961 35.4259 10.6776 35.4259 10.4497V8.73129H37.1296C37.3556 8.73129 37.5722 8.64077 37.732 8.47964C37.8917 8.31851 37.9815 8.09997 37.9815 7.8721V4.43532C37.9815 4.20744 37.8917 3.9889 37.732 3.82777C37.5722 3.66664 37.3556 3.57612 37.1296 3.57612H35.4259V1.85773C35.4259 1.62986 35.3362 1.41132 35.1764 1.25019C35.0167 1.08906 34.8 0.998535 34.5741 0.998535H31.1667C30.9407 0.998535 30.7241 1.08906 30.5643 1.25019C30.4046 1.41132 30.3148 1.62986 30.3148 1.85773V3.57612H28.6111C28.3852 3.57612 28.1685 3.66664 28.0088 3.82777C27.849 3.9889 27.7593 4.20744 27.7593 4.43532V6.22685C26.7811 6.37938 25.8708 6.82462 25.1463 7.5049C24.6965 7.92155 24.1078 8.1524 23.4971 8.15162C22.8864 8.15085 22.2983 7.91851 21.8495 7.50071C20.9348 6.63561 19.728 6.15402 18.4741 6.15371C17.3003 6.15334 16.166 6.5805 15.2796 7.35658C14.391 8.13006 13.8056 9.19837 13.6292 10.3688C13.571 10.748 13.5418 11.1312 13.5419 11.515C13.5426 12.0227 13.5926 12.5291 13.6909 13.0269H4.75926C4.53333 13.0269 4.31666 13.1175 4.15691 13.2786C3.99716 13.4397 3.90741 13.6583 3.90741 13.8861V22.4781H1.35185C1.12593 22.4781 0.909255 22.5686 0.749502 22.7298C0.589749 22.8909 0.5 23.1094 0.5 23.3373V51.6911C0.5 51.9189 0.589749 52.1375 0.749502 52.2986C0.909255 52.4597 1.12593 52.5503 1.35185 52.5503H45.6482C45.8741 52.5503 46.0907 52.4597 46.2505 52.2986C46.4103 52.1375 46.5 51.9189 46.5 51.6911V23.3376C46.5 23.1097 46.4103 22.8912 46.2505 22.7301C46.0907 22.5689 45.8741 22.4784 45.6482 22.4784ZM26.0556 47.3951V43.9583H28.3274L31.5074 46.3641C31.5967 46.4346 31.699 46.4864 31.8084 46.5165C31.9178 46.5466 32.032 46.5544 32.1444 46.5394C32.2568 46.5244 32.3651 46.4869 32.463 46.4291C32.5609 46.3713 32.6463 46.2944 32.7143 46.2029C32.7823 46.1114 32.8315 46.0071 32.859 45.8962C32.8866 45.7853 32.8918 45.6699 32.8746 45.5569C32.8573 45.4438 32.8179 45.3354 32.7585 45.2379C32.6992 45.1405 32.6211 45.056 32.529 44.9893L29.1216 42.4118C28.9744 42.3002 28.7952 42.2399 28.6111 42.2399V39.6623H30.3148V40.5215C30.3148 40.7494 30.4046 40.9679 30.5643 41.1291C30.7241 41.2902 30.9407 41.3807 31.1667 41.3807H34.5741C34.8 41.3807 35.0167 41.2902 35.1764 41.1291C35.3362 40.9679 35.4259 40.7494 35.4259 40.5215V37.0847C35.4259 36.8569 35.3362 36.6383 35.1764 36.4772C35.0167 36.3161 34.8 36.2255 34.5741 36.2255H31.1667C30.9407 36.2255 30.7241 36.3161 30.5643 36.4772C30.4046 36.6383 30.3148 36.8569 30.3148 37.0847V37.9439H28.6111V35.7187C28.6105 35.3126 28.4916 34.9156 28.2693 34.5769C28.047 34.2383 27.731 33.9729 27.3605 33.8138C26.99 33.6547 26.5813 33.6087 26.1852 33.6817C25.7891 33.7547 25.4229 33.9434 25.1321 34.2244L24.9332 34.407C24.4394 34.1659 23.881 34.094 23.3429 34.2021C22.8048 34.3102 22.3164 34.5924 21.9518 35.0059L20.8124 36.284C20.7374 36.3678 20.6795 36.4657 20.642 36.5721C20.6046 36.6785 20.5883 36.7913 20.5942 36.904C20.6001 37.0168 20.628 37.1273 20.6763 37.2291C20.7246 37.331 20.7923 37.4222 20.8757 37.4976L23.4099 39.7959C23.5661 39.9379 23.7689 40.0165 23.9792 40.0167C23.9942 40.0167 24.0091 40.0167 24.0241 40.0159C24.2499 40.0036 24.4617 39.9016 24.6131 39.7322L25.7511 38.4542C26.0902 38.0737 26.3095 37.6002 26.3812 37.0937C26.4528 36.5873 26.3737 36.0708 26.1537 35.6098L26.3085 35.4671C26.5001 35.2732 26.9074 35.4285 26.9074 35.7188V42.2399H22.1489L18.9909 39.0548C18.9123 38.9731 18.8183 38.908 18.7144 38.8632C18.6106 38.8185 18.499 38.795 18.3861 38.7942C18.2731 38.7934 18.1612 38.8152 18.0567 38.8584C17.9523 38.9016 17.8573 38.9653 17.7775 39.0459C17.6977 39.1264 17.6345 39.2222 17.5917 39.3275C17.5488 39.4329 17.5272 39.5458 17.528 39.6597C17.5289 39.7736 17.5521 39.8862 17.5965 39.9909C17.6409 40.0956 17.7054 40.1904 17.7864 40.2698L21.1938 43.7066C21.2729 43.7864 21.3668 43.8497 21.4702 43.8929C21.5736 43.9361 21.6844 43.9583 21.7963 43.9583H24.3519V47.3951H15.8333V31.0704H36.2778V33.7545C36.2792 34.8411 36.5776 35.9062 37.1401 36.8329C37.7027 37.7596 38.5076 38.5119 39.4665 39.0072C39.0027 39.4063 38.6299 39.9019 38.3736 40.4598C38.1173 41.0178 37.9835 41.625 37.9815 42.2399V47.3951H26.0556ZM32.0185 37.9439H33.7222V39.6623H32.0185V37.9439ZM24.7021 36.6845C24.7085 36.7973 24.6925 36.9102 24.6551 37.0167C24.6177 37.1232 24.5595 37.2211 24.4841 37.3046L23.9153 37.9439L22.6481 36.7948L23.2189 36.1562C23.2936 36.0723 23.384 36.0041 23.4849 35.9555C23.5858 35.9069 23.6952 35.8788 23.8068 35.8729C23.9185 35.867 24.0302 35.8833 24.1356 35.921C24.241 35.9587 24.3379 36.017 24.421 36.0925C24.5045 36.1673 24.5724 36.2582 24.6206 36.3599C24.6689 36.4615 24.6965 36.5719 24.7019 36.6845H24.7021ZM5.61111 31.0704H14.1296V34.5072H5.61111V31.0704ZM41.3889 37.876C40.4331 37.6986 39.569 37.1893 38.9466 36.4364C38.3242 35.6836 37.9827 34.7347 37.9815 33.7545V31.0704H41.3889V37.876ZM39.6852 42.2399C39.6859 41.707 39.8499 41.1873 40.155 40.7521C40.46 40.3169 40.891 39.9875 41.3889 39.8091V47.3951H39.6852V42.2399ZM29.463 5.29451H31.1667C31.3926 5.29451 31.6093 5.20399 31.769 5.04286C31.9288 4.88173 32.0185 4.66319 32.0185 4.43532V2.71693H33.7222V4.43532C33.7222 4.66319 33.812 4.88173 33.9717 5.04286C34.1315 5.20399 34.3481 5.29451 34.5741 5.29451H36.2778V7.0129H34.5741C34.3481 7.0129 34.1315 7.10343 33.9717 7.26456C33.812 7.42569 33.7222 7.64423 33.7222 7.8721V9.59049H32.0185V7.8721C32.0185 7.64423 31.9288 7.42569 31.769 7.26456C31.6093 7.10343 31.3926 7.0129 31.1667 7.0129H29.463V5.29451ZM15.3123 10.6323C15.4269 9.86529 15.81 9.16503 16.3921 8.65826C17.5992 7.5993 19.51 7.64967 20.6822 8.75385C21.4411 9.48295 22.4488 9.88999 23.4969 9.89077C24.545 9.89155 25.5533 9.48601 26.3132 8.75804C26.7259 8.37204 27.231 8.10096 27.779 7.97144C27.8008 8.17913 27.8977 8.37143 28.0512 8.51159C28.2047 8.65176 28.4041 8.72998 28.6111 8.73129H30.3148V10.4497C30.3148 10.6776 30.4046 10.8961 30.5643 11.0572C30.7241 11.2184 30.9407 11.3089 31.1667 11.3089H31.7391C31.7416 11.378 31.7549 11.4462 31.7549 11.5153C31.7574 12.2298 31.6314 12.9388 31.383 13.608C31.2792 13.9179 31.1457 14.2168 30.9845 14.5007C29.4314 17.3191 28.431 20.4128 28.0379 23.6129L27.9789 24.1079C27.9449 24.3702 27.8173 24.6111 27.6201 24.7856C27.4229 24.9601 27.1695 25.0563 26.9071 25.0562C26.6448 25.0561 26.3914 24.9598 26.1944 24.7851C25.9973 24.6105 25.8699 24.3695 25.836 24.1071L25.2995 19.7858C25.2454 19.3429 25.0325 18.9352 24.7011 18.6396C24.3696 18.344 23.9425 18.1808 23.5 18.1808C23.0575 18.1808 22.6304 18.344 22.2989 18.6396C21.9675 18.9352 21.7546 19.3429 21.7005 19.7858L21.1639 24.1078C21.13 24.3699 21.0027 24.6106 20.8059 24.7851C20.609 24.9596 20.356 25.056 20.0939 25.0564C19.8319 25.0567 19.5786 24.9609 19.3813 24.7868C19.1841 24.6128 19.0563 24.3724 19.0217 24.1104L18.961 23.6094C18.5671 20.4055 17.5644 17.3082 16.0079 14.4872C15.8461 14.2 15.7124 13.8976 15.6086 13.5844C15.3648 12.9223 15.2416 12.2214 15.245 11.5152C15.2449 11.2196 15.2674 10.9244 15.3123 10.6323ZM5.61111 14.7457H14.232C14.3196 14.9472 14.4179 15.1438 14.5265 15.3347C15.9729 17.9589 16.9043 20.8396 17.27 23.8193L17.3308 24.3194C17.4159 24.9975 17.7433 25.6211 18.2517 26.0731C18.7601 26.5251 19.4145 26.7746 20.0923 26.7747C20.77 26.7748 21.4245 26.5255 21.933 26.0737C22.4415 25.6218 22.7692 24.9983 22.8545 24.3202L23.3911 19.999C23.4044 19.8916 23.5957 19.8916 23.609 19.999L24.1456 24.3194C24.2309 24.9977 24.5587 25.6214 25.0675 26.0733C25.5762 26.5253 26.231 26.7745 26.909 26.7742C27.5869 26.7739 28.2415 26.5241 28.7498 26.0717C29.2582 25.6193 29.5854 24.9953 29.6702 24.3169L29.7292 23.8228C30.0938 20.8471 31.0229 17.9699 32.4657 15.3484C32.5769 15.1531 32.6776 14.952 32.7676 14.7459H41.3889V29.352H5.61111V14.7457ZM2.2037 24.1968H3.90741V50.8319H2.2037V24.1968ZM5.61111 36.2255H14.1296V50.8319H5.61111V36.2255ZM15.8333 49.1135H41.3889V50.8319H15.8333V49.1135ZM44.7963 50.8319H43.0926V24.1968H44.7963V50.8319Z" fill="#006AFF"/>
<path d="M9.88017 40.5115H8.16667C7.94074 40.5115 7.72407 40.602 7.56432 40.7631C7.40456 40.9243 7.31482 41.1428 7.31482 41.3707V43.0992C7.31482 43.327 7.40456 43.5456 7.56432 43.7067C7.72407 43.8678 7.94074 43.9584 8.16667 43.9584C8.39259 43.9584 8.60926 43.8678 8.76902 43.7067C8.92877 43.5456 9.01852 43.327 9.01852 43.0992V42.2299H9.88038C10.1063 42.2299 10.323 42.1393 10.4827 41.9782C10.6425 41.8171 10.7322 41.5985 10.7322 41.3707C10.7322 41.1428 10.6425 40.9243 10.4827 40.7631C10.323 40.602 10.1063 40.5115 9.88038 40.5115H9.88017Z" fill="#006AFF"/>
</g>
<defs>
<clipPath id="clip0">
<rect width="46" height="51.5517" fill="white" transform="translate(0.5 0.998535)"/>
</clipPath>
</defs>
</svg>
