<svg preserveAspectRatio="none" viewBox="0 0 47 55" fill="none" xmlns="http://www.w3.org/2000/svg">
<path d="M17.5485 20.0453C18.0622 20.0453 18.4784 19.6913 18.4784 19.2543V17.3462C18.4784 16.9092 18.0622 16.5552 17.5485 16.5552C17.0348 16.5552 16.6186 16.9092 16.6186 17.3462V19.2543C16.6186 19.6912 17.0348 20.0453 17.5485 20.0453Z" fill="#006AFF"/>
<path d="M29.4515 20.0453C29.9652 20.0453 30.3814 19.6913 30.3814 19.2543V17.3462C30.3814 16.9092 29.9652 16.5552 29.4515 16.5552C28.9378 16.5552 28.5216 16.9092 28.5216 17.3462V19.2543C28.5216 19.6912 28.9378 20.0453 29.4515 20.0453Z" fill="#006AFF"/>
<path d="M9.79919 49.8833H12.155C12.8729 49.8833 13.4569 49.3865 13.4569 48.7759V47.5103H14.9447C15.6626 47.5103 16.2466 47.0135 16.2466 46.4028V44.3989C16.2466 43.7883 15.6626 43.2915 14.9447 43.2915H13.4569V42.0259C13.4569 41.4152 12.8729 40.9185 12.155 40.9185H9.79919C9.08129 40.9185 8.4973 41.4152 8.4973 42.0259V43.2915H7.00943C6.29154 43.2915 5.70755 43.7883 5.70755 44.3989V46.4028C5.70755 47.0135 6.29154 47.5103 7.00943 47.5103H8.4973V48.7759C8.4973 49.3865 9.08129 49.8833 9.79919 49.8833ZM7.56738 45.9282V44.8735H9.05526C9.77315 44.8735 10.3571 44.3768 10.3571 43.7661V42.5005H11.597V43.7661C11.597 44.3768 12.181 44.8735 12.8989 44.8735H14.3868V45.9282H12.8989C12.181 45.9282 11.597 46.425 11.597 47.0356V48.3013H10.3571V47.0356C10.3571 46.425 9.77315 45.9282 9.05526 45.9282H7.56738Z" fill="#006AFF"/>
<path d="M28.0256 43.6079V49.3032C28.0256 49.9139 28.6096 50.4106 29.3275 50.4106H39.9906C40.7085 50.4106 41.2925 49.9139 41.2925 49.3032V43.6079C41.2925 42.9972 40.7085 42.5005 39.9906 42.5005H29.3275C28.6096 42.5005 28.0256 42.9972 28.0256 43.6079ZM29.8854 44.0825H39.4326V48.8286H29.8854V44.0825Z" fill="#006AFF"/>
<path d="M36.5189 41.6567C37.0326 41.6567 37.4488 41.3027 37.4488 40.8657C37.4488 40.4288 37.0326 40.0747 36.5189 40.0747H32.7992C32.2855 40.0747 31.8693 40.4288 31.8693 40.8657C31.8693 41.3027 32.2855 41.6567 32.7992 41.6567H36.5189Z" fill="#006AFF"/>
<path d="M45.5701 46.9302C46.0838 46.9302 46.5 46.5761 46.5 46.1392V38.439C46.5 35.934 44.7053 33.7792 42.1522 32.8554C42.6362 31.8802 42.9043 30.8093 42.9043 29.686V28.7368C42.9043 28.2999 42.4881 27.9458 41.9744 27.9458C41.4607 27.9458 41.0445 28.2999 41.0445 28.7368V29.686C41.0445 30.6657 40.7901 31.5952 40.3375 32.4318C40.0211 32.3951 39.6987 32.3745 39.3706 32.3745H36.4947C37.5961 31.1825 38.2547 29.6815 38.2547 28.0513C38.2547 26.9636 37.9601 25.9341 37.438 25.0147C38.9846 24.3717 40.0526 23.0198 40.0526 21.4595V20.2819C40.0526 19.7323 39.9198 19.2087 39.6806 18.7326V13.4966H41.0445V25.0454C41.0445 25.4824 41.4607 25.8364 41.9744 25.8364C42.4881 25.8364 42.9043 25.4824 42.9043 25.0454V10.4907C42.9043 8.60062 41.0967 7.06299 38.8747 7.06299H38.0964C35.8286 3.45754 31.3588 0.998535 26.2252 0.998535H20.775C15.6412 0.998535 11.1714 3.45754 8.90374 7.06299H8.12534C5.90333 7.06299 4.09569 8.60062 4.09569 10.4907V29.686C4.09569 30.8093 4.36363 31.8803 4.84781 32.8554C2.29474 33.7792 0.5 35.934 0.5 38.439V53.1528C0.5 54.1705 1.47344 54.9985 2.66981 54.9985H44.3302C45.5266 54.9985 46.5 54.1705 46.5 53.1528V49.8306C46.5 49.3936 46.0838 49.0396 45.5701 49.0396C45.0564 49.0396 44.6402 49.3936 44.6402 49.8306V53.1528C44.6402 53.2983 44.5012 53.4165 44.3302 53.4165H2.66981C2.49883 53.4165 2.35984 53.2983 2.35984 53.1528V38.439C2.35984 36.5334 3.76575 34.9027 5.74102 34.2554C7.46993 36.4285 10.3946 37.8599 13.7049 37.8599H19.1668L22.1581 42.264C22.4383 42.6765 22.9399 42.9229 23.5 42.9229C24.0601 42.9229 24.5617 42.6765 24.8419 42.264L27.8332 37.8599H33.2951C36.6054 37.8599 39.5301 36.4285 41.259 34.2554C43.2342 34.9027 44.6402 36.5334 44.6402 38.439V46.1392C44.6402 46.5761 45.0564 46.9302 45.5701 46.9302ZM38.1927 21.4595C38.1927 22.6004 37.241 23.5558 35.9774 23.7817C36.1196 23.1724 36.1949 22.543 36.1949 21.8986V18.0068C37.3485 18.2979 38.1927 19.2074 38.1927 20.2819V21.4595ZM11.0226 23.7817C9.75902 23.5558 8.80728 22.6004 8.80728 21.4595V20.2819C8.80728 19.2074 9.65152 18.2979 10.8051 18.0068V21.8986C10.8051 22.543 10.8804 23.1724 11.0226 23.7817ZM10.9263 16.3685C10.2942 16.4465 9.7026 16.6327 9.17924 16.9049V13.4966H15.7714L12.3563 14.9358C11.6522 15.2327 11.1455 15.7528 10.9263 16.3685ZM12.665 17.0624C12.665 16.7596 12.8631 16.488 13.1821 16.3535L19.9609 13.4966H34.2915C34.3192 13.6301 34.335 13.7669 34.335 13.9071V21.8986C34.335 22.1797 34.3178 22.4573 34.2847 22.7311H31.4775C30.9577 22.7311 30.4584 22.5745 30.0714 22.29C28.5988 21.2079 26.5813 20.5296 24.4299 20.3767V18.7173C24.4299 18.2803 24.0137 17.9263 23.5 17.9263C22.9863 17.9263 22.5701 18.2803 22.5701 18.7173V20.3767C20.4187 20.5296 18.4012 21.2079 16.9286 22.29C16.5416 22.5744 16.0423 22.731 15.5225 22.731H12.7153C12.6822 22.4573 12.665 22.1796 12.665 21.8985V17.0624ZM15.5225 24.3131C16.4884 24.3131 17.4196 24.0199 18.1444 23.4874C19.4948 22.4951 21.4469 21.9259 23.5 21.9259C25.5531 21.9259 27.5052 22.495 28.8555 23.4872C29.5802 24.0198 30.5112 24.3131 31.4773 24.3131H33.9007C32.6914 27.5863 29.0915 29.967 24.8497 29.967H22.1501C17.9083 29.967 14.3086 27.5862 13.0992 24.3131H15.5225ZM27.7776 31.2219C31.2729 30.4268 34.1089 28.2452 35.4154 25.4142C35.4726 25.4141 35.5294 25.412 35.5862 25.4101C36.1005 26.1924 36.3949 27.0929 36.3949 28.0512C36.3949 29.8133 35.403 31.3817 33.8693 32.3744H29.9474H27.7776V31.2219ZM36.169 13.4966H37.8208V16.9049C37.3309 16.6502 36.7814 16.4713 36.1949 16.3854V13.907C36.1949 13.7684 36.1856 13.6316 36.169 13.4966ZM5.95553 10.4907C5.95553 9.47305 6.92897 8.64502 8.12534 8.64502H16.3086C16.8223 8.64502 17.2385 8.29096 17.2385 7.854C17.2385 7.41705 16.8223 7.06299 16.3086 7.06299H11.0631C13.1349 4.36657 16.7136 2.58057 20.7748 2.58057H26.225C30.2863 2.58057 33.8651 4.36657 35.9367 7.06299H20.6482C20.1346 7.06299 19.7183 7.41705 19.7183 7.854C19.7183 8.29096 20.1346 8.64502 20.6482 8.64502H38.8747C40.071 8.64502 41.0445 9.47305 41.0445 10.4907V11.9146H5.95553V10.4907ZM6.66251 32.4318C6.20995 31.5952 5.95553 30.6657 5.95553 29.686V13.4966H7.31941V18.7326C7.08023 19.2087 6.94744 19.7323 6.94744 20.2819V21.4595C6.94744 23.6368 9.02649 25.4085 11.5846 25.4142C12.891 28.2452 15.7271 30.4268 19.2224 31.2219V32.3745H17.0526H7.62938C7.3013 32.3745 6.97893 32.3951 6.66251 32.4318ZM13.7049 36.2778C11.346 36.2778 9.2312 35.3755 7.80879 33.9566H16.5158L18.0923 36.2778H13.7049ZM23.5 41.0774L21.3147 37.8599H25.6853L23.5 41.0774ZM26.7598 36.2778H20.2402L18.6637 33.9566H20.1523C20.666 33.9566 21.0822 33.6025 21.0822 33.1656V31.5048C21.434 31.5329 21.7898 31.549 22.1501 31.549H24.8497C25.2101 31.549 25.5659 31.533 25.9177 31.5048V33.1656C25.9177 33.6025 26.3339 33.9566 26.8476 33.9566H28.3362L26.7598 36.2778ZM33.2951 36.2778H28.9077L30.4842 33.9566H39.1912C37.7688 35.3755 35.654 36.2778 33.2951 36.2778Z" fill="#006AFF"/>
<path d="M20.7102 25.4146H26.2898C26.8034 25.4146 27.2197 25.0605 27.2197 24.6235C27.2197 24.1866 26.8034 23.8325 26.2898 23.8325H20.7102C20.1966 23.8325 19.7803 24.1866 19.7803 24.6235C19.7803 25.0605 20.1966 25.4146 20.7102 25.4146Z" fill="#006AFF"/>
<path d="M19.5323 27.9458H27.4677C27.9813 27.9458 28.3976 27.5917 28.3976 27.1548C28.3976 26.7178 27.9813 26.3638 27.4677 26.3638H19.5323C19.0187 26.3638 18.6024 26.7178 18.6024 27.1548C18.6024 27.5917 19.0187 27.9458 19.5323 27.9458Z" fill="#006AFF"/>
</svg>
