<svg preserveAspectRatio="none" viewBox="0 0 47 53" fill="none" xmlns="http://www.w3.org/2000/svg">
<g id="achievement 2" clip-path="url(#clip0)">
<g id="Group">
<path id="Vector" d="M39.0806 39.8697C39.0806 41.2389 40.0793 42.3531 41.3065 42.3531C42.5336 42.3531 43.5323 41.2389 43.5323 39.8697C43.5323 38.5005 42.5336 37.3862 41.3065 37.3862C40.0793 37.3862 39.0806 38.5005 39.0806 39.8697ZM42.0484 39.8697C42.0484 40.3266 41.7153 40.6975 41.3065 40.6975C40.8976 40.6975 40.5645 40.3266 40.5645 39.8697C40.5645 39.4127 40.8976 39.0419 41.3065 39.0419C41.7153 39.0419 42.0484 39.4127 42.0484 39.8697Z" fill="#006AFF"/>
<path id="Vector_2" d="M46.5 39.8696C46.5 36.9565 44.5613 34.5451 42.0484 34.1411V24.141C42.0484 23.228 41.3829 22.4854 40.5645 22.4854H22.7581C21.9397 22.4854 21.2742 23.228 21.2742 24.141V26.3074L18.3065 25.8935V23.9953C19.3014 23.3886 20.1687 22.5193 20.8194 21.4308C21.0887 20.9804 21.2972 20.497 21.4775 20.002H22.0161C23.6528 20.002 24.9839 18.5169 24.9839 16.6907C24.9839 14.8645 23.6528 13.3794 22.0161 13.3794V12.4754C23.7025 12.1211 24.9839 10.4713 24.9839 8.48867C24.9839 7.12691 24.3777 5.86284 23.362 5.10787L22.5911 4.53502L22.3359 3.96548C21.5064 2.11365 19.8371 0.962158 17.9815 0.962158C17.6454 0.962158 17.3093 1.00852 16.9806 1.09958C16.3908 1.26431 15.8662 1.5764 15.4144 1.97872C14.4491 1.32143 13.3533 0.962158 12.2181 0.962158C7.80213 0.962158 4.20968 4.97045 4.20968 9.89762C4.20968 10.6278 4.28981 11.3571 4.44858 12.0648L4.98797 14.4738C4.50942 15.0615 4.20968 15.8347 4.20968 16.6907C4.20968 18.5169 5.54071 20.002 7.17742 20.002H7.71606C7.89635 20.497 8.10484 20.9796 8.37416 21.4308C9.0241 22.5193 9.89142 23.3894 10.8871 23.9962V25.8944L7.81474 26.3223C6.22552 26.5442 4.73571 27.2661 3.5041 28.4093C1.5951 30.1858 0.5 32.7942 0.5 35.5682V42.353C0.5 45.0923 2.49655 47.3199 4.95161 47.3199H6.43548V52.2868H22.7581V50.6312H37.6673L37.4662 52.8713L41.3065 50.7289L45.1467 52.8713L44.3974 44.5153C45.6705 43.4582 46.5 41.7719 46.5 39.8696ZM45.0161 39.8696C45.0161 42.1519 43.352 44.0087 41.3065 44.0087C39.2609 44.0087 37.5968 42.1519 37.5968 39.8696C37.5968 37.5873 39.2609 35.7305 41.3065 35.7305C43.352 35.7305 45.0161 37.5873 45.0161 39.8696ZM21.2742 45.6643H9.40323V42.353H16.5392L16.8901 41.5699C17.1312 41.031 17.6157 40.6974 18.1551 40.6974C18.5268 40.6974 18.8918 40.8663 19.1552 41.1601L20.2251 42.353H21.2742C22.0925 42.353 22.7581 43.0956 22.7581 44.0087C22.7581 44.9217 22.0925 45.6643 21.2742 45.6643ZM13.36 29.1079L11.8946 30.3339L10.6667 27.5922L11.4235 27.4863L13.36 29.1079ZM17.77 27.4871L18.5268 27.593L17.2989 30.3348L15.8336 29.1079L17.77 27.4871ZM22.0161 15.0351C22.8345 15.0351 23.5 15.7776 23.5 16.6907C23.5 17.6038 22.8345 18.3463 22.0161 18.3463H21.9078C21.9738 17.9101 22.0161 17.4688 22.0161 17.021V15.0351ZM7.17742 18.3463C6.35906 18.3463 5.69355 17.6038 5.69355 16.6907C5.69355 15.7776 6.35906 15.0351 7.17742 15.0351V17.0193C7.17742 17.468 7.21971 17.9092 7.28574 18.3463H7.17742ZM7.18039 13.3794H7.17742C6.87323 13.3794 6.58535 13.4456 6.30935 13.5408L5.88868 11.6642C5.75884 11.0864 5.69355 10.4928 5.69355 9.89762C5.69355 5.88353 8.62048 2.61779 12.2181 2.61779C12.9942 2.61779 13.7443 2.84296 14.4217 3.25025C14.0633 3.93651 13.8548 4.72707 13.8548 5.56648V5.92906H15.3387V5.56648C15.3387 4.21051 16.1615 3.03418 17.339 2.70637C17.5497 2.64759 17.7656 2.61779 17.9815 2.61779C19.2725 2.61779 20.4328 3.41829 21.0101 4.70555L21.4411 5.66747L22.5399 6.48453C23.1409 6.9332 23.5 7.68155 23.5 8.48867C23.5 9.81566 22.5318 10.896 21.3425 10.896H20.9566C20.7556 10.896 20.556 10.8595 20.3297 10.7759C19.5633 10.4912 19.0484 9.69397 19.0484 8.79331C19.0484 8.23453 19.2435 7.7097 19.5967 7.31566L20.3149 6.51433L19.2658 5.3438L18.5476 6.14512C18.1113 6.63188 17.8212 7.23287 17.6758 7.88354L16.8753 8.48205C16.209 8.97874 15.4322 9.24033 14.6302 9.24033C13.3845 9.24033 12.371 8.10953 12.371 6.71963C12.371 6.32973 12.4533 5.94065 12.6099 5.59214L13.035 4.64346L11.7077 3.90257L11.2825 4.85124C11.0236 5.42906 10.8871 6.07476 10.8871 6.71963C10.8871 7.11201 10.9516 7.48536 11.0429 7.84546C8.79632 8.5044 7.20784 10.747 7.18039 13.3794ZM9.60874 20.5119C8.98923 19.4746 8.66129 18.2668 8.66129 17.0193V13.4481C8.66129 11.4175 9.96413 9.7006 11.7581 9.36533C12.4452 10.2925 13.4705 10.896 14.6302 10.896C15.7267 10.896 16.7877 10.5375 17.7003 9.85871L17.7077 9.85292C18.0141 11.0061 18.8065 11.9539 19.8964 12.3595C20.1042 12.4365 20.3171 12.4821 20.5323 12.5127V17.0202C20.5323 18.2669 20.2051 19.4738 19.5848 20.5111C18.5365 22.266 16.7833 23.3132 14.895 23.3132C14.8943 23.3132 14.8928 23.3132 14.8913 23.3132L14.2955 23.3124C12.4073 23.3116 10.6556 22.2644 9.60874 20.5119ZM14.2941 24.968L14.8898 24.9689H14.8943C15.5561 24.9689 16.2023 24.8571 16.8226 24.6626V26.2106L14.5968 28.0732L12.371 26.2106V24.6626C12.9897 24.8571 13.6337 24.968 14.2941 24.968ZM1.98387 42.353V35.5682C1.98387 33.2876 2.88458 31.1419 4.45452 29.6825C5.46652 28.7412 6.69219 28.1477 7.99874 27.9656L9.10497 27.8116L11.3627 32.8497L14.5968 30.1427L17.8301 32.8489L20.0878 27.8108L21.1926 27.9647C21.22 27.9689 21.2467 27.9763 21.2735 27.9805V40.6974H20.8387L20.2036 39.9896C19.6568 39.3778 18.9289 39.0418 18.1551 39.0418C17.0949 39.0418 16.1378 39.6726 15.6251 40.6974H7.91935V34.0748H6.43548V40.6974H4.95161V42.353H7.91935V45.6643H4.95161C3.3149 45.6643 1.98387 44.1792 1.98387 42.353ZM21.2742 50.6312H7.91935V47.3199H21.2742V50.6312ZM22.7581 48.9756V46.8597C23.641 46.2852 24.2419 45.2289 24.2419 44.0087C24.2419 42.7885 23.641 41.7322 22.7581 41.1577V24.141H40.5645V34.1411C38.0516 34.5451 36.1129 36.9565 36.1129 39.8696C36.1129 41.7719 36.9424 43.4582 38.2155 44.5153L37.8156 48.9756H22.7581ZM43.4017 50.0468L41.3065 48.8779L39.2112 50.0468L39.6326 45.3497C40.1579 45.5501 40.7203 45.6643 41.3065 45.6643C41.8926 45.6643 42.455 45.5501 42.981 45.3497L43.4017 50.0468Z" fill="#006AFF"/>
<path id="Vector_3" d="M24.2419 32.4192H39.0806V34.0748H24.2419V32.4192Z" fill="#006AFF"/>
<path id="Vector_4" d="M24.2419 25.7966H39.0806V27.4523H24.2419V25.7966Z" fill="#006AFF"/>
<path id="Vector_5" d="M30.1774 29.1079H39.0806V30.7635H30.1774V29.1079Z" fill="#006AFF"/>
<path id="Vector_6" d="M24.2419 29.1079H27.1169V30.7635H24.2419V29.1079Z" fill="#006AFF"/>
<path id="Vector_7" d="M27.6734 29.1079H29.5282V30.7635H27.6734V29.1079Z" fill="#006AFF"/>
<path id="Vector_8" d="M32.2641 36.8689H33.748V38.5245H32.2641V36.8689Z" fill="#006AFF"/>
<path id="Vector_9" d="M11.629 14.2071C12.0378 14.2071 12.371 14.578 12.371 15.035H13.8548C13.8548 13.6658 12.8562 12.5515 11.629 12.5515C10.4019 12.5515 9.40323 13.6658 9.40323 15.035H10.8871C10.8871 14.578 11.2202 14.2071 11.629 14.2071Z" fill="#006AFF"/>
<path id="Vector_10" d="M17.5645 14.2071C17.9733 14.2071 18.3065 14.578 18.3065 15.035H19.7903C19.7903 13.6658 18.7917 12.5515 17.5645 12.5515C16.3374 12.5515 15.3387 13.6658 15.3387 15.035H16.8226C16.8226 14.578 17.1557 14.2071 17.5645 14.2071Z" fill="#006AFF"/>
<path id="Vector_11" d="M18.3065 17.5185V16.6907H10.8871V17.5185C10.8871 19.8008 12.5513 21.6576 14.5968 21.6576C16.6423 21.6576 18.3065 19.8008 18.3065 17.5185ZM12.4978 18.3463H16.695C16.3885 19.3099 15.5635 20.0019 14.596 20.0019C13.6285 20.0019 12.8043 19.3099 12.4978 18.3463Z" fill="#006AFF"/>
<path id="Vector_12" d="M29.6673 45.9749L29.6673 38.5245L28.9718 39.1454L27.7661 40.0767L27.7661 38.5245L28.6935 37.7484L29.6673 36.8689L31.1512 36.8689L31.1512 45.9749L29.6673 45.9749Z" fill="#006AFF"/>
</g>
</g>
<defs>
<clipPath id="clip0">
<rect width="46" height="52" fill="white" transform="translate(0.5 0.962158)"/>
</clipPath>
</defs>
</svg>
