<svg preserveAspectRatio="none" viewBox="0 0 47 57" fill="none" xmlns="http://www.w3.org/2000/svg">
<g clip-path="url(#clip0)">
<path d="M6.32757 50.6718V46.0244C7.88212 45.6204 9.039 44.2168 9.039 42.5375V15.4231C9.039 13.7439 7.88212 12.3402 6.32757 11.9362V7.28883H2.71232V4.37946L9.25863 2.74265L8.82028 0.989258L0.904692 2.9677V9.09645H4.51994V11.9362C2.96538 12.3402 1.8085 13.7439 1.8085 15.4231V42.5375C1.8085 44.2168 2.96538 45.6204 4.51994 46.0244V52.4794H8.13519V55.1909H2.71232V53.3833H0.904692V56.9985H9.94281V50.6718H6.32757ZM3.61613 15.4231C3.61613 14.4262 4.42685 13.6155 5.42375 13.6155C6.42066 13.6155 7.23138 14.4262 7.23138 15.4231V20.846H3.61613V15.4231ZM3.61613 22.6536H7.23138V24.4613H3.61613V22.6536ZM3.61613 26.2689H7.23138V28.0765H3.61613V26.2689ZM3.61613 29.8841H7.23138V31.6918H3.61613V29.8841ZM3.61613 33.4994H7.23138V35.307H3.61613V33.4994ZM3.61613 42.5375V37.1146H7.23138V42.5375C7.23138 43.5344 6.42066 44.3451 5.42375 44.3451C4.42685 44.3451 3.61613 43.5344 3.61613 42.5375Z" fill="#006AFF"/>
<path d="M17.1733 2.76978H22.5962V0.962158H17.1733C15.6784 0.962158 14.4619 2.17869 14.4619 3.67359V6.38503C14.4619 7.87994 15.6784 9.09647 17.1733 9.09647H18.0771V11.9362C16.5226 12.3403 15.3657 13.7439 15.3657 15.4232V53.3833C15.3657 55.3771 16.9871 56.9985 18.9809 56.9985C20.9747 56.9985 22.5962 55.3771 22.5962 53.3833V15.4232C22.5962 13.7439 21.4393 12.3403 19.8848 11.9362V7.28884H17.1733C16.6753 7.28884 16.2695 6.88303 16.2695 6.38503V3.67359C16.2695 3.17559 16.6753 2.76978 17.1733 2.76978ZM20.7886 53.3833C20.7886 54.3802 19.9778 55.1909 18.9809 55.1909C17.984 55.1909 17.1733 54.3802 17.1733 53.3833V42.5375H20.7886V53.3833ZM20.7886 40.7299H17.1733V38.9223H20.7886V40.7299ZM20.7886 37.1146H17.1733V35.307H20.7886V37.1146ZM20.7886 33.4994H17.1733V31.6918H20.7886V33.4994ZM20.7886 29.8841H17.1733V28.0765H20.7886V29.8841ZM20.7886 15.4232V26.2689H17.1733V15.4232C17.1733 14.4262 17.984 13.6155 18.9809 13.6155C19.9778 13.6155 20.7886 14.4262 20.7886 15.4232Z" fill="#006AFF"/>
<path d="M46.0953 10.9041C46.0953 5.42247 41.635 0.962158 36.1534 0.962158C30.6718 0.962158 26.2114 5.42247 26.2114 10.9041C26.2114 15.4448 29.2754 19.2761 33.4419 20.461V24.4613H32.5381V33.4994H33.4419V54.2871C33.4419 55.782 34.6585 56.9985 36.1534 56.9985C37.6483 56.9985 38.8648 55.782 38.8648 54.2871V33.4994H39.7686V24.4613H38.8648V20.461C43.0314 19.2761 46.0953 15.4448 46.0953 10.9041ZM37.0572 54.2871C37.0572 54.7851 36.6514 55.1909 36.1534 55.1909C35.6554 55.1909 35.2496 54.7851 35.2496 54.2871V33.4994H37.0572V54.2871ZM37.961 31.6918H34.3457V29.8841H37.961V31.6918ZM37.961 28.0765H34.3457V26.2689H37.961V28.0765ZM35.2496 24.4613V20.7999C35.5478 20.827 35.8479 20.846 36.1534 20.846C36.4589 20.846 36.7589 20.827 37.0572 20.7999V24.4613H35.2496ZM36.1534 19.0384C31.6687 19.0384 28.0191 15.3888 28.0191 10.9041C28.0191 6.41938 31.6687 2.76978 36.1534 2.76978C40.6381 2.76978 44.2877 6.41938 44.2877 10.9041C44.2877 15.3888 40.6381 19.0384 36.1534 19.0384Z" fill="#006AFF"/>
<path d="M36.1534 4.57739C35.2089 4.57739 34.2924 4.78617 33.4302 5.19922L34.2102 6.82969C34.8275 6.53505 35.4809 6.38502 36.1534 6.38502C38.6452 6.38502 40.6724 8.41227 40.6724 10.9041C40.6724 11.5765 40.5224 12.23 40.2278 12.8473L41.8582 13.6273C42.2713 12.765 42.4801 11.8486 42.4801 10.9041C42.4801 7.41536 39.6421 4.57739 36.1534 4.57739Z" fill="#006AFF"/>
<path d="M38.0966 14.9785C37.4793 15.2731 36.8258 15.4232 36.1534 15.4232C33.6616 15.4232 31.6343 13.3959 31.6343 10.9041C31.6343 10.2317 31.7843 9.5782 32.079 8.9609L30.4485 8.18091C30.0355 9.04315 29.8267 9.95961 29.8267 10.9041C29.8267 14.3928 32.6647 17.2308 36.1534 17.2308C37.0979 17.2308 38.0143 17.022 38.8766 16.609L38.0966 14.9785Z" fill="#006AFF"/>
</g>
<defs>
<clipPath id="clip0">
<rect width="46" height="56.0364" fill="white" transform="translate(0.5 0.962158)"/>
</clipPath>
</defs>
</svg>
