<svg id="business-logo" class="icon-logo" role="Imagen" alt="Un diente con un espejo dental" preserveAspectRatio="none" viewBox="0 0 170 173" fill="none" xmlns="http://www.w3.org/2000/svg">
<path d="M111.432 50.1408C110.171 50.1592 108.902 50.3124 107.673 50.5639C107.655 50.5675 107.637 50.5714 107.619 50.5753C100.132 52.2387 95.4129 56.562 90.9703 60.942C84.6434 55.9723 78.0689 52.7026 71.2749 52.2612C63.6533 51.7661 56.0872 55.1517 49.6858 62.643C49.6348 62.7026 49.5861 62.764 49.5396 62.8271C44.7168 69.3803 42.0769 77.6496 43.3718 86.0952C44.6667 94.5409 49.9763 102.942 60.115 109.535C60.4809 109.773 60.8913 110.003 61.3118 110.232C56.2488 115.657 53.8467 123.452 53.308 131.685C52.6451 141.817 54.7415 152.894 58.8271 162.412C58.8428 162.449 58.8592 162.485 58.8763 162.521C59.3124 163.442 60.8087 167.057 64.2498 170.052C63.8349 169.691 64.2913 170.1 64.5142 170.298C64.7373 170.496 65.0418 170.751 65.4211 171.026C66.1796 171.574 67.2345 172.227 68.6789 172.562C70.1234 172.896 72.0761 172.779 73.7372 171.751C75.3982 170.724 76.6314 169.03 77.5641 166.781C77.5741 166.757 77.5838 166.733 77.5933 166.708C80.1535 160.087 80.7537 157.029 81.2872 153.641C81.8207 150.253 82.3335 146.456 84.9777 137.058C84.9802 137.049 84.9827 137.04 84.9852 137.031C88.3152 124.795 88.552 125.103 94.429 118.18C94.889 117.728 95.2841 117.388 95.6308 117.11C95.8065 117.654 95.9972 118.299 96.134 119.099C96.8478 124.671 96.4314 128.846 96.0096 134.555C95.5862 140.286 95.1878 147.416 96.1059 158.262C96.106 158.263 96.1061 158.264 96.1061 158.265C96.1062 158.265 96.1062 158.266 96.1063 158.267C96.4471 162.351 97.3999 165.952 100.608 167.994C102.212 169.016 104.532 169.191 106.351 168.415C108.17 167.639 109.593 166.241 110.938 164.366C110.978 164.31 111.016 164.254 111.052 164.196C119.068 151.374 120.517 144.509 123.252 129.78C125.158 119.522 125.536 114.576 125.11 110.077C124.717 105.925 123.761 102.563 122.88 95.6041C127.505 91.6653 130.538 85.8175 131.838 79.676C133.279 72.8706 132.609 65.5068 128.56 59.8835C125.42 55.3782 121.398 51.9828 115.142 50.5248C113.942 50.2384 112.691 50.1224 111.432 50.1408ZM111.628 56.7497C112.621 56.7494 113.506 56.7862 113.643 56.8189C113.649 56.8206 113.656 56.8222 113.663 56.8239C118.583 57.9677 120.603 59.7734 123.265 63.601C123.276 63.6167 123.287 63.6323 123.298 63.6479C125.939 67.3029 126.662 72.8841 125.508 78.3361C124.354 83.7882 121.335 88.904 117.583 91.5437C117.108 91.878 116.732 92.334 116.494 92.8638C116.256 93.3936 116.165 93.9777 116.231 94.5548C117.206 103.135 118.316 106.966 118.668 110.687C119.021 114.407 118.757 118.552 116.891 128.599C114.168 143.261 113.246 148.455 105.637 160.649C104.893 161.672 104.28 162.173 103.976 162.365C103.719 161.964 102.772 160.346 102.554 157.725C102.554 157.724 102.554 157.722 102.554 157.721C101.668 147.26 102.046 140.675 102.462 135.032C102.879 129.389 103.364 124.539 102.544 118.202C102.539 118.163 102.533 118.124 102.527 118.086C102.119 115.641 102.14 113.328 99.8107 111.182C98.4687 109.947 95.9786 109.672 94.3432 110.325C92.7078 110.977 91.3909 112.073 89.799 113.654C89.7336 113.719 89.671 113.787 89.6113 113.857C83.6578 120.88 82.1526 122.803 78.7456 135.319C76.0383 144.944 75.4138 149.344 74.8956 152.634C74.3788 155.917 74.0089 158.027 71.5761 164.326C70.9855 165.739 70.4616 166.169 70.3326 166.249C70.2027 166.329 70.3362 166.304 70.139 166.258C69.9417 166.213 69.5325 166.014 69.2108 165.781C69.0499 165.665 68.91 165.548 68.8106 165.46C68.7111 165.371 68.9684 165.581 68.4985 165.172C68.4984 165.172 68.4982 165.172 68.4981 165.172C66.2693 163.232 65.4102 161.208 64.7565 159.821C61.0913 151.265 59.1822 141.009 59.7646 132.107C60.3479 123.192 63.3672 115.918 68.8438 112.26C69.3036 111.953 69.677 111.533 69.9284 111.04C70.1797 110.548 70.3006 109.999 70.2794 109.446C70.2582 108.893 70.0958 108.355 69.8075 107.883C69.5192 107.411 69.1148 107.021 68.6328 106.75C68.0089 106.399 67.0771 105.941 66.0332 105.405C64.9893 104.868 63.8303 104.233 63.6427 104.111C54.711 98.3026 50.7658 91.6264 49.7674 85.1146C48.7749 78.6409 50.7758 72.1121 54.6835 66.7579C60.1108 60.445 65.3154 58.3581 70.8554 58.718C76.4223 59.0797 82.6571 62.2439 89.0623 67.7338L89.0625 67.7335C89.6488 68.2361 90.3955 68.5125 91.1677 68.5127C92.0162 68.5124 92.8306 68.1789 93.4356 67.5839L93.4357 67.5845C98.6716 62.4371 102.354 58.3872 108.984 56.9015C109.553 56.7874 110.642 56.7499 111.628 56.7497Z" fill="#397DFF"/>
<path d="M149.805 30.7349C147.825 30.7342 145.976 31.2039 144.391 32.0984C141.219 33.8874 139.22 36.9003 137.798 40.065C135.515 45.1426 135.09 49.5813 136.151 53.2106C137.213 56.8399 139.715 59.4079 142.368 60.9005L142.409 60.9236L166.931 73.7915L169.938 68.062L145.521 55.2494C144.052 54.4183 142.898 53.2284 142.362 51.3943C141.823 49.5519 141.86 46.8082 143.699 42.7182C144.793 40.2843 146.198 38.5073 147.569 37.734C148.941 36.9607 150.399 36.7153 153.258 38.0533L153.331 38.0875L166.778 43.5797L169.225 37.5896L155.853 32.1281L156.001 32.193C153.893 31.2065 151.784 30.7355 149.805 30.7349Z" fill="#397DFF"/>
<path d="M87.5792 100.291C87.325 100.257 87.4231 100.401 87.5129 100.612C95.1034 106.837 95.3507 113.827 95.7809 116.903L101.822 114.925C101.36 111.621 95.9726 106.342 87.5792 100.291V100.291Z" fill="#397DFF"/>
<path d="M87.5794 100.289C87.5157 100.281 87.474 100.284 87.4484 100.296C87.4355 100.302 87.4267 100.311 87.4215 100.321C87.4162 100.332 87.4146 100.345 87.4156 100.36C87.4196 100.419 87.4666 100.507 87.5115 100.612L87.5117 100.613L87.5119 100.613C95.1019 106.838 95.3491 113.827 95.7794 116.903L95.7797 116.905L101.824 114.926L101.824 114.925C101.593 113.272 100.13 111.126 97.6762 108.637C95.2223 106.148 91.7769 103.315 87.5802 100.289L87.5798 100.289H87.5794ZM87.5788 100.292C91.7752 103.318 95.2203 106.15 97.6739 108.639C100.127 111.128 101.589 113.273 101.821 114.924L95.7822 116.901C95.3522 113.825 95.1035 106.835 87.5142 100.611C87.4693 100.506 87.4225 100.417 87.4186 100.36C87.4176 100.345 87.4194 100.333 87.4243 100.323C87.4293 100.313 87.4374 100.305 87.4497 100.299C87.4743 100.287 87.5156 100.284 87.5788 100.292Z" fill="#397DFF"/>
<path d="M90.9279 61.0679C86.9361 65.0874 79.9441 71.6478 73.4503 72.8828C73.3801 73.0233 73.4216 73.0371 73.5462 73.1581C80.0971 71.9122 85.0924 72.2537 92.9877 67.9683L90.9279 61.0679Z" fill="#397DFF"/>
<path d="M90.9286 61.0649L90.9267 61.0668C86.9349 65.0863 79.9428 71.6463 73.4498 72.8812L73.4491 72.8814L73.4489 72.8821C73.4313 72.9173 73.4205 72.9446 73.4164 72.9678C73.4124 72.991 73.415 73.0101 73.4237 73.0285C73.4411 73.0651 73.4827 73.0989 73.545 73.1593L73.5456 73.1599L73.5463 73.1597C80.097 71.9139 85.0928 72.2553 92.9884 67.9697L92.9895 67.9691L90.9286 61.0649ZM90.9271 61.0709L92.9857 67.9676C85.0916 72.252 80.0969 71.9108 73.5465 73.1565C73.4846 73.0964 73.4434 73.0626 73.4265 73.0271C73.4181 73.0093 73.4155 72.9911 73.4195 72.9684C73.4234 72.9459 73.4341 72.9189 73.4513 72.8842C79.9447 71.6488 86.9351 65.0904 90.9271 61.0709Z" fill="#397DFF"/>
<path d="M107.037 13.3833L81.292 20.9457L83.1156 27.1538L106.298 20.3443L141.568 39.4916L144.655 33.805L107.037 13.3833Z" fill="#397DFF"/>
<path d="M104.69 24.1023L103.273 24.6318C102.362 24.9725 97.3825 26.4915 93.0026 27.7793C88.6228 29.067 84.5801 30.2284 84.5801 30.2284L86.3667 36.4473C86.3667 36.4473 90.4242 35.2815 94.8278 33.9868C98.3438 32.953 101.847 31.9196 104.07 31.1922L137.501 50.1904L140.697 44.5649L104.69 24.1023Z" fill="#397DFF"/>
<path d="M45.218 0.515521C33.6403 0.611926 22.2797 5.05046 13.7375 13.3515C0.720842 26.0008 -3.12701 45.1711 4.07452 61.6808C11.276 78.1904 28.032 88.7494 46.3776 88.4407L46.2687 81.9711C30.4692 82.2369 16.1395 73.1567 10.0052 59.0938C3.87099 45.0309 7.10722 28.8169 18.2468 17.9918C29.3863 7.1667 46.217 3.98249 60.7452 9.98683C75.2735 15.9912 84.5235 29.8992 84.2412 45.155L90.7104 45.2748C91.0425 27.3267 80.118 10.9922 63.2166 4.00708C57.4068 1.60595 51.2826 0.465023 45.218 0.515521Z" fill="#397DFF"/>
</svg>
